<svg id="_401Img" data-name="401Img" xmlns="http://www.w3.org/2000/svg" width="584.792" height="464.91" viewBox="0 0 584.792 464.91">
  <g id="Background_Complete">
    <g id="Group_26531" data-name="Group 26531" transform="translate(0 29.111)">
      <rect id="Rectangle_16448" data-name="Rectangle 16448" width="584.792" height="0.292" transform="translate(0 382.981)" fill="#ebebeb"/>
      <rect id="Rectangle_16449" data-name="Rectangle 16449" width="38.737" height="0.292" transform="translate(91.859 392.793)" fill="#ebebeb"/>
      <rect id="Rectangle_16450" data-name="Rectangle 16450" width="35.286" height="0.292" transform="translate(155.941 401.226)" fill="#ebebeb"/>
      <rect id="Rectangle_16451" data-name="Rectangle 16451" width="44.737" height="0.292" transform="translate(66.491 403.659)" fill="#ebebeb"/>
      <rect id="Rectangle_16452" data-name="Rectangle 16452" width="18.596" height="0.292" transform="translate(507.6 403.016)" fill="#ebebeb"/>
      <rect id="Rectangle_16453" data-name="Rectangle 16453" width="45.988" height="0.292" transform="translate(457.857 403.016)" fill="#ebebeb"/>
      <rect id="Rectangle_16454" data-name="Rectangle 16454" width="35.474" height="0.292" transform="translate(292.396 392.641)" fill="#ebebeb"/>
      <rect id="Rectangle_16455" data-name="Rectangle 16455" width="84.327" height="0.292" transform="translate(332.946 392.641)" fill="#ebebeb"/>
      <path id="Path_60209" data-name="Path 60209" d="M270.725,355.707H44.878a6.684,6.684,0,0,1-6.678-6.678V31.568a6.684,6.684,0,0,1,6.678-6.678H270.725a6.684,6.684,0,0,1,6.678,6.678v317.46A6.684,6.684,0,0,1,270.725,355.707ZM44.878,25.182a6.394,6.394,0,0,0-6.386,6.386v317.46a6.394,6.394,0,0,0,6.386,6.386H270.725a6.394,6.394,0,0,0,6.386-6.386V31.568a6.394,6.394,0,0,0-6.386-6.386Z" transform="translate(6.478 -24.89)" fill="#ebebeb"/>
      <path id="Path_60210" data-name="Path 60210" d="M487.025,355.707H261.178a6.684,6.684,0,0,1-6.678-6.678V31.568a6.684,6.684,0,0,1,6.678-6.678H487.025a6.684,6.684,0,0,1,6.678,6.678v317.46A6.684,6.684,0,0,1,487.025,355.707ZM261.178,25.182a6.394,6.394,0,0,0-6.386,6.386v317.46a6.394,6.394,0,0,0,6.386,6.386H487.025a6.394,6.394,0,0,0,6.386-6.386V31.568a6.394,6.394,0,0,0-6.386-6.386Z" transform="translate(43.159 -24.89)" fill="#ebebeb"/>
    </g>
    <g id="Group_26539" data-name="Group 26539" transform="translate(63.606)">
      <g id="Group_26532" data-name="Group 26532" transform="translate(255.424 223.066)">
        <rect id="Rectangle_16456" data-name="Rectangle 16456" width="25.345" height="233.531" transform="translate(165.132 0) rotate(45)" fill="#ebebeb"/>
        <path id="Path_60211" data-name="Path 60211" d="M368.071,275.988,350.153,258.07,325.72,282.491l16.433,26.21Z" transform="translate(-263.793 -179.301)" fill="#e0e0e0"/>
        <rect id="Rectangle_16457" data-name="Rectangle 16457" width="8.444" height="233.531" transform="translate(23.884 189.013) rotate(-135)" fill="#e0e0e0"/>
        <rect id="Rectangle_16458" data-name="Rectangle 16458" width="25.345" height="233.531" transform="translate(0.004 23.894) rotate(-45)" fill="#ebebeb"/>
        <rect id="Rectangle_16459" data-name="Rectangle 16459" width="8.444" height="233.531" transform="translate(189.012 165.139) rotate(135)" fill="#e0e0e0"/>
      </g>
      <g id="Group_26533" data-name="Group 26533" transform="translate(0 264.975)">
        <rect id="Rectangle_16460" data-name="Rectangle 16460" width="19.731" height="181.753" transform="translate(128.52) rotate(45)" fill="#ebebeb"/>
        <path id="Path_60212" data-name="Path 60212" d="M128.559,292.923,114.606,278.97,95.6,297.987l12.784,20.386Z" transform="translate(-47.394 -217.666)" fill="#e0e0e0"/>
        <rect id="Rectangle_16461" data-name="Rectangle 16461" width="6.573" height="181.753" transform="translate(18.601 147.114) rotate(-135)" fill="#e0e0e0"/>
        <rect id="Rectangle_16462" data-name="Rectangle 16462" width="19.731" height="181.753" transform="translate(0.007 18.597) rotate(-45)" fill="#ebebeb"/>
        <rect id="Rectangle_16463" data-name="Rectangle 16463" width="6.573" height="181.753" transform="translate(147.114 128.521) rotate(135)" fill="#e0e0e0"/>
      </g>
      <g id="Group_26538" data-name="Group 26538" transform="translate(57.282 265.624)">
        <g id="Group_26534" data-name="Group 26534" transform="translate(231.461 20.994)">
          <rect id="Rectangle_16464" data-name="Rectangle 16464" width="20.596" height="125.473" fill="#f5f5f5"/>
          <path id="Path_60213" data-name="Path 60213" d="M321.856,289.64h-20.6v15.041l20.6-4.444Z" transform="translate(-301.26 -237.5)" fill="#ebebeb"/>
          <rect id="Rectangle_16465" data-name="Rectangle 16465" width="6.865" height="125.473" transform="translate(27.45 125.473) rotate(180)" fill="#ebebeb"/>
        </g>
        <g id="Group_26535" data-name="Group 26535" transform="translate(15.708 20.994)">
          <rect id="Rectangle_16466" data-name="Rectangle 16466" width="20.596" height="125.473" fill="#f5f5f5"/>
          <path id="Path_60214" data-name="Path 60214" d="M137.375,289.64H116.79v15.041l20.585-4.444Z" transform="translate(-116.79 -237.5)" fill="#ebebeb"/>
          <rect id="Rectangle_16467" data-name="Rectangle 16467" width="6.865" height="125.473" transform="translate(27.45 125.473) rotate(180)" fill="#ebebeb"/>
        </g>
        <g id="Group_26536" data-name="Group 26536" transform="translate(0 39.368)">
          <rect id="Rectangle_16468" data-name="Rectangle 16468" width="262.864" height="38.62" transform="translate(0 0.012)" fill="#f5f5f5"/>
          <rect id="Rectangle_16469" data-name="Rectangle 16469" width="3.86" height="38.62" transform="translate(266.724 38.62) rotate(180)" fill="#ebebeb"/>
        </g>
        <path id="Path_60215" data-name="Path 60215" d="M255.451,227.11H204.059L167.72,263.449v51.392l36.339,36.339h51.392l36.339-36.339V263.449Z" transform="translate(-92.446 -227.11)" fill="#e2dfdc"/>
        <path id="Path_60216" data-name="Path 60216" d="M252.277,231.96h-46.69L172.57,264.977v46.7l33.017,33.006h46.69l33.017-33.006v-46.7Z" transform="translate(-91.623 -226.287)" fill="#cca079"/>
        <path id="Union_2" data-name="Union 2" d="M24.091,75.788a39.57,39.57,0,1,1,15.353,3.1A39.3,39.3,0,0,1,24.091,75.788Zm15.346-4.5A31.841,31.841,0,0,0,64.679,20.022L20.025,64.676A31.7,31.7,0,0,0,39.437,71.29ZM7.582,39.435A31.7,31.7,0,0,0,14.2,58.848L58.851,14.193A31.84,31.84,0,0,0,7.582,39.435Z" transform="translate(97.865 22.591)" fill="#fff"/>
      </g>
      <path id="Path_60221" data-name="Path 60221" d="M422.815,74.583a16,16,0,0,0-3.626.433h-.012c-1.544-3.45-4.971-5.7-9.591-5.7a18.166,18.166,0,0,0-9.871,3.2h0c-1.965-6.585-7.848-10.994-16.058-10.994-11.684,0-23.918,8.924-28.339,20.339a14.737,14.737,0,0,0-3.286-.363c-.363,0-.737.012-1.1.035-10.082.667-9.322,15.871.784,15.871h71.813a7.922,7.922,0,0,0,6.4-3.216,18.455,18.455,0,0,0,2.8-5.567c2.292-7.754-2.14-14.047-9.895-14.047Z" transform="translate(-5.312 10.435)" fill="#f0f0f0"/>
      <path id="Path_60222" data-name="Path 60222" d="M183.237,17.626C181.67,7.24,173.39,0,161.284,0c-9.918,0-20.14,4.854-27.743,12.327h0a11.646,11.646,0,0,0-8.012-2.854c-8.4,0-17.2,6.807-19.684,15.2a15.146,15.146,0,0,0-.62,3.813H105.2s-.117.094-.175.129c-6.947,4.725-3.462,15.661,4.947,15.661h73.953a8.475,8.475,0,0,0,7.134-3.789,21.721,21.721,0,0,0,2.655-5.719c2.643-8.947-2.012-16.3-10.491-17.146Z" transform="translate(-46.424)" fill="#f0f0f0"/>
      <path id="Path_60223" data-name="Path 60223" d="M263.214,117.754c-2.152-14.281-13.544-24.234-30.187-24.234-13.637,0-27.684,6.678-38.152,16.959h0a16.044,16.044,0,0,0-11.017-3.93c-11.544,0-23.661,9.357-27.064,20.9a20.912,20.912,0,0,0-.854,5.251h-.023c-.082.07-.152.117-.234.175-9.567,6.5-4.819,21.52,6.749,21.52h97.45A18.44,18.44,0,0,0,277.6,141.473l.047-.14c3.626-12.3-2.76-22.421-14.421-23.567Z" transform="translate(-38.073 15.86)" fill="#f5f5f5"/>
    </g>
  </g>
  <g id="Shadow" transform="translate(65.625 438.431)">
    <ellipse id="_Path_" cx="226.771" cy="13.24" rx="226.771" ry="13.24" fill="#f5f5f5"/>
  </g>
  <g id="__1" transform="translate(91.859 19.333)">
    <path id="Path_60224" data-name="Path 60224" d="M137.253,112.822H78.54v-26.5L137.253,16.53h28.093v71.3h14.561v25.006H165.347v21.684H137.253V112.834Zm0-25.006v-36.5l-31.017,36.5Z" transform="translate(-78.54 -16.53)" fill="#007066"/>
    <path id="Path_60225" data-name="Path 60225" d="M374.546,16.53V134.506h-32.6V57.2a98.725,98.725,0,0,1-15.31,9.731,120.127,120.127,0,0,1-18.55,7.123V47.618q16.456-5.3,25.555-12.737A51.937,51.937,0,0,0,347.891,16.53h26.667Z" transform="translate(-39.612 -16.53)" fill="#007066"/>
  </g>
  <g id="Character" transform="translate(208.174 8.226)">
    <g id="Group_26540" data-name="Group 26540">
      <path id="Path_60226" data-name="Path 60226" d="M253.385,191.44a2.927,2.927,0,0,1-2.9-2.573l-8.351-68.07a2.928,2.928,0,1,1,5.813-.713l8.351,68.07a2.932,2.932,0,0,1-2.55,3.263C253.63,191.428,253.5,191.44,253.385,191.44Z" transform="translate(-167.116 11.701)" fill="#263238"/>
      <circle id="Ellipse_11766" data-name="Ellipse 11766" cx="66.327" cy="66.327" r="66.327" transform="matrix(0.063, -0.998, 0.998, 0.063, 0, 132.394)" fill="#cca079"/>
      <circle id="Ellipse_11767" data-name="Ellipse 11767" cx="53.567" cy="53.567" r="53.567" transform="translate(1.959 102.936) rotate(-70.49)" fill="#fff"/>
      <path id="Path_60227" data-name="Path 60227" d="M277.794,64.415c-4.4-5.93-12.83,0-15.4,6.257a17.457,17.457,0,0,0-1.357,4.854L258.25,56.438l-2.222-18.07a6.021,6.021,0,0,0-11.953,1.462l-.55-4.5a6.021,6.021,0,0,0-11.953,1.462l.772,6.281a6.015,6.015,0,0,0-7.462-5.1h0a6.022,6.022,0,0,0-4.491,6.561l.959,7.825a6.016,6.016,0,0,0-7.462-5.1h0a6.022,6.022,0,0,0-4.491,6.561l1.918,15.637,1.38,11.216L214.5,95.4c1.287,10.468,5.392,16.456,11.485,19.134,9.368,4.117,26.491,4.164,34.187-2.082,6.737-5.462,11.064-18.631,12.105-26.772,1.041-8.105,7.263-18.865,5.485-21.275Z" transform="translate(-172.671 -3.132)" fill="#007066"/>
      <rect id="Rectangle_16470" data-name="Rectangle 16470" width="13.86" height="128.105" transform="translate(104.311 15.613) rotate(38.01)" fill="#cca079"/>
    </g>
  </g>
</svg>
