<svg xmlns="http://www.w3.org/2000/svg" width="25" height="25" viewBox="0 0 25 25">
  <g id="arrow-down" transform="translate(0.5 0.5)">
    <g id="vuesax_outline_arrow-down" data-name="vuesax/outline/arrow-down">
      <g id="arrow-down-2" data-name="arrow-down">
        <g id="Vector" transform="translate(3.332 8.203)" fill="#007066">
          <path d="M 8.667500495910645 8.847498893737793 C 7.872030258178711 8.847498893737793 7.123830318450928 8.537379264831543 6.560720443725586 7.974279403686523 L 0.04072049632668495 1.45427930355072 C -0.3489895164966583 1.06455934047699 -0.3489895164966583 0.4304393231868744 0.04072049632668495 0.04071933403611183 C 0.2282004952430725 -0.1467506736516953 0.4792004823684692 -0.2500006556510925 0.747500479221344 -0.2500006556510925 C 1.015800476074219 -0.2500006556510925 1.26680052280426 -0.1467506736516953 1.454280495643616 0.04071933403611183 L 7.97428035736084 6.56071949005127 C 8.159210205078125 6.745649337768555 8.405400276184082 6.847499370574951 8.667500495910645 6.847499370574951 C 8.929600715637207 6.847499370574951 9.175790786743164 6.745649337768555 9.360720634460449 6.56071949005127 L 15.8807201385498 0.04071933403611183 C 16.06820106506348 -0.1467506736516953 16.31920051574707 -0.2500006556510925 16.58749961853027 -0.2500006556510925 C 16.85580062866211 -0.2500006556510925 17.1068000793457 -0.1467506736516953 17.29428100585938 0.04071933403611183 C 17.68399047851562 0.4304393231868744 17.68399047851562 1.06455934047699 17.29428100585938 1.45427930355072 L 10.7742805480957 7.974279403686523 C 10.2111701965332 8.537379264831543 9.462970733642578 8.847498893737793 8.667500495910645 8.847498893737793 Z" stroke="none"/>
          <path d="M 8.667500495910645 8.597498893737793 C 9.367500305175781 8.597498893737793 10.06750011444092 8.327499389648438 10.59750080108643 7.797499179840088 L 17.11750030517578 1.277499318122864 C 17.40750122070312 0.9874993562698364 17.40750122070312 0.5074993371963501 17.11750030517578 0.2174993306398392 C 16.82750129699707 -0.07249923050403595 16.34750366210938 -0.07250207662582397 16.0575008392334 0.2174993306398392 L 9.537500381469727 6.737499237060547 C 9.057500839233398 7.217499732971191 8.277500152587891 7.217499732971191 7.797500610351562 6.737499237060547 L 1.277500510215759 0.2174993306398392 C 0.9875005483627319 -0.07250066101551056 0.5075004696846008 -0.07250066101551056 0.2175004929304123 0.2174993306398392 C -0.07249950617551804 0.5074993371963501 -0.07249950617551804 0.9874993562698364 0.2175004929304123 1.277499318122864 L 6.737500667572021 7.797499179840088 C 7.267500400543213 8.327499389648438 7.967500686645508 8.597498893737793 8.667500495910645 8.597498893737793 M 8.667500495910645 9.097498893737793 C 7.805250644683838 9.097498893737793 6.994270324707031 8.761379241943359 6.383950710296631 8.151049613952637 L -0.1360495090484619 1.631049275398254 C -0.6232495307922363 1.143859386444092 -0.6232495307922363 0.3511393368244171 -0.1360495090484619 -0.136050671339035 C 0.09864049404859543 -0.3707506656646729 0.4124304950237274 -0.5000006556510925 0.747500479221344 -0.5000006556510925 C 1.082570552825928 -0.5000006556510925 1.396360516548157 -0.3707506656646729 1.63105046749115 -0.136050671339035 L 8.151050567626953 6.383949279785156 C 8.28877067565918 6.521659374237061 8.472180366516113 6.597499370574951 8.667500495910645 6.597499370574951 C 8.862820625305176 6.597499370574951 9.046230316162109 6.521659374237061 9.183950424194336 6.383949279785156 L 15.70395088195801 -0.136050671339035 C 15.93864059448242 -0.3707506656646729 16.2524299621582 -0.5000006556510925 16.58749961853027 -0.5000006556510925 C 16.92257118225098 -0.5000006556510925 17.23636054992676 -0.3707506656646729 17.47105026245117 -0.136050671339035 C 17.95825004577637 0.3511393368244171 17.95825004577637 1.143859386444092 17.47105026245117 1.631049275398254 L 10.95105075836182 8.151049613952637 C 10.34073066711426 8.761379241943359 9.529750823974609 9.097498893737793 8.667500495910645 9.097498893737793 Z" stroke="none" fill="#007066"/>
        </g>
        <g id="Vector-2" data-name="Vector" fill="none" opacity="0">
          <path d="M0,0H24V24H0Z" stroke="none"/>
          <path d="M 0 0 L 0 24 L 24 24 L 24 0 L 0 0 M -0.5 -0.5 L 24.5 -0.5 L 24.5 24.5 L -0.5 24.5 L -0.5 -0.5 Z" stroke="none" fill="#007066"/>
        </g>
      </g>
    </g>
  </g>
</svg>
