<svg xmlns="http://www.w3.org/2000/svg" width="18" height="18" viewBox="0 0 18 18">
  <g id="arrow-back" transform="translate(12 12)">
    <g id="arrow-back-2" data-name="arrow-back" transform="translate(-12 -12)">
      <g id="arrow-back-3" data-name="arrow-back">
        <rect id="Rectangle_16362" data-name="Rectangle 16362" width="18" height="18" transform="translate(18) rotate(90)" fill="#007066" opacity="0"/>
        <path id="Path_60044" data-name="Path 60044" d="M15.25,9.5H6.355L9.078,6.23a.751.751,0,0,0-1.155-.96l-3.75,4.5a.893.893,0,0,0-.067.112.1.1,0,0,1-.053.1.721.721,0,0,0,0,.54.1.1,0,0,0,.052.1.893.893,0,0,0,.068.112l3.75,4.5a.751.751,0,1,0,1.155-.96L6.355,11H15.25a.75.75,0,0,0,0-1.5Z" transform="translate(-1 -1.25)" fill="#007066"/>
      </g>
    </g>
  </g>
</svg>
