<svg id="arrow-back-2" xmlns="http://www.w3.org/2000/svg" width="24" height="24" viewBox="0 0 24 24">
  <g id="arrow-back">
    <rect id="Rectangle_16386" data-name="Rectangle 16386" width="24" height="24" transform="translate(24) rotate(90)" fill="#fff" opacity="0"/>
    <path id="Path_60100" data-name="Path 60100" d="M5,11H16.86L13.23,6.64a1,1,0,0,1,1.54-1.28l5,6a1.19,1.19,0,0,1,.09.15.127.127,0,0,0,.07.13.961.961,0,0,1,0,.72.127.127,0,0,1-.07.13,1.19,1.19,0,0,1-.09.15l-5,6a1,1,0,1,1-1.54-1.28L16.86,13H5a1,1,0,0,1,0-2Z" transform="translate(0)" fill="#fff"/>
  </g>
</svg>
