<svg id="bag-timer" xmlns="http://www.w3.org/2000/svg" width="18" height="18" viewBox="0 0 18 18">
  <g id="vuesax_outline_bag-timer" data-name="vuesax/outline/bag-timer">
    <g id="bag-timer-2" data-name="bag-timer">
      <path id="Vector" d="M3.563,7.125A3.563,3.563,0,1,1,7.125,3.563,3.566,3.566,0,0,1,3.563,7.125Zm0-6A2.438,2.438,0,1,0,6,3.563,2.442,2.442,0,0,0,3.563,1.125Z" transform="translate(5.438 7.688)" fill="#fff"/>
      <path id="Vector-2" data-name="Vector" d="M.559,2.8A.56.56,0,0,1,.274,1.762l.57-.345a.185.185,0,0,0,.09-.158v-.7A.567.567,0,0,1,1.5,0a.56.56,0,0,1,.563.555v.7a1.322,1.322,0,0,1-.638,1.125l-.577.345A.486.486,0,0,1,.559,2.8Z" transform="translate(7.691 9.757)" fill="#fff"/>
      <path id="Vector-3" data-name="Vector" d="M9.378,11.625h-4.5c-3.465,0-4.11-1.612-4.275-3.18L.04,3.953A3.559,3.559,0,0,1,.715,1.11,4.382,4.382,0,0,1,4.128,0h6A4.388,4.388,0,0,1,13.54,1.11a3.567,3.567,0,0,1,.675,2.828l-.562,4.507C13.488,10.013,12.843,11.625,9.378,11.625Zm-5.25-10.5a3.44,3.44,0,0,0-2.58.742,2.427,2.427,0,0,0-.39,1.958L1.72,8.318c.128,1.2.458,2.19,3.157,2.19h4.5c2.7,0,3.03-.982,3.158-2.175L13.1,3.825a2.431,2.431,0,0,0-.39-1.95,3.406,3.406,0,0,0-2.58-.75Z" transform="translate(1.872 5.438)" fill="#fff"/>
      <path id="Vector-4" data-name="Vector" d="M7.313,5.538a.567.567,0,0,1-.562-.562V3.941a2.835,2.835,0,0,0-.922-2.085A2.792,2.792,0,0,0,3.66,1.143,3.032,3.032,0,0,0,1.125,4.091v.727a.567.567,0,0,1-.562.563A.567.567,0,0,1,0,4.818V4.083A4.158,4.158,0,0,1,3.555.018a3.891,3.891,0,0,1,3.03,1,3.953,3.953,0,0,1,1.29,2.918V4.976A.567.567,0,0,1,7.313,5.538Z" transform="translate(5.063 0.934)" fill="#fff"/>
      <path id="Vector-5" data-name="Vector" d="M0,0H18V18H0Z" fill="none" opacity="0"/>
    </g>
  </g>
</svg>
