<svg id="bill" xmlns="http://www.w3.org/2000/svg" width="18" height="18" viewBox="0 0 18 18">
  <g id="vuesax_outline_bill" data-name="vuesax/outline/bill">
    <g id="bill-2" data-name="bill">
      <path id="Vector" d="M6.81,15.368a2.9,2.9,0,0,1-1.74-.578L1.162,11.865A2.927,2.927,0,0,1,0,9.54V0H13.62V9.54a2.927,2.927,0,0,1-1.162,2.325L8.55,14.79A2.9,2.9,0,0,1,6.81,15.368ZM1.125,1.118V9.533a1.808,1.808,0,0,0,.712,1.425l3.907,2.925a1.789,1.789,0,0,0,2.138,0l3.908-2.925A1.808,1.808,0,0,0,12.5,9.533V1.118Z" transform="translate(2.19 1.32)" fill="#fff"/>
      <path id="Vector-2" data-name="Vector" d="M15.563,1.125h-15A.567.567,0,0,1,0,.563.567.567,0,0,1,.563,0h15a.567.567,0,0,1,.563.563A.567.567,0,0,1,15.563,1.125Z" transform="translate(0.938 1.313)" fill="#fff"/>
      <path id="Vector-3" data-name="Vector" d="M6.563,1.125h-6A.567.567,0,0,1,0,.563.567.567,0,0,1,.563,0h6a.567.567,0,0,1,.563.563A.567.567,0,0,1,6.563,1.125Z" transform="translate(5.438 5.438)" fill="#fff"/>
      <path id="Vector-4" data-name="Vector" d="M6.563,1.125h-6A.567.567,0,0,1,0,.563.567.567,0,0,1,.563,0h6a.567.567,0,0,1,.563.563A.567.567,0,0,1,6.563,1.125Z" transform="translate(5.438 9.188)" fill="#fff"/>
      <path id="Vector-5" data-name="Vector" d="M0,0H18V18H0Z" fill="none" opacity="0"/>
      <path id="Vector-6" data-name="Vector" d="M0,0H18V18H0Z" fill="none" opacity="0"/>
    </g>
  </g>
</svg>
