<svg xmlns="http://www.w3.org/2000/svg" width="30.3" height="30.3" viewBox="0 0 30.3 30.3">
  <g id="buildings-tabs" transform="translate(0.15 0.15)">
    <g id="vuesax_outline_buildings-2" data-name="vuesax/outline/buildings-2">
      <g id="buildings-2">
        <path id="Vector" d="M6.813,21.875H3.625A3.3,3.3,0,0,1,0,18.25V3.625A3.3,3.3,0,0,1,3.625,0H9a3.3,3.3,0,0,1,3.625,3.625V5.938a.937.937,0,1,1-1.875,0V3.625c0-1.275-.475-1.75-1.75-1.75H3.625c-1.275,0-1.75.475-1.75,1.75V18.25c0,1.275.475,1.75,1.75,1.75H6.813a.938.938,0,1,1,0,1.875Z" transform="translate(1.563 1.563)" fill="#cca079" stroke="#cca079" stroke-width="0.3"/>
        <path id="Vector-2" data-name="Vector" d="M11.263,21.875h-7.3A3.612,3.612,0,0,1,0,17.913V3.962A3.612,3.612,0,0,1,3.962,0h7.3a3.6,3.6,0,0,1,3.95,3.962v13.95A3.6,3.6,0,0,1,11.263,21.875Zm-7.3-20c-1.5,0-2.087.587-2.087,2.087v13.95c0,1.5.587,2.087,2.087,2.087h7.3c1.488,0,2.075-.587,2.075-2.087V3.962c0-1.5-.587-2.087-2.075-2.087Z" transform="translate(7.438 6.563)" fill="#cca079" stroke="#cca079" stroke-width="0.3"/>
        <path id="Vector-3" data-name="Vector" d="M9,21.875H5.9A.938.938,0,0,1,5.9,20H9c1.275,0,1.75-.475,1.75-1.75V3.625c0-1.275-.475-1.75-1.75-1.75H3.625c-1.275,0-1.75.475-1.75,1.75V5.938a.944.944,0,0,1-.937.938A.944.944,0,0,1,0,5.938V3.625A3.3,3.3,0,0,1,3.625,0H9a3.3,3.3,0,0,1,3.625,3.625V18.25A3.3,3.3,0,0,1,9,21.875Z" transform="translate(15.812 1.563)" fill="#cca079" stroke="#cca079" stroke-width="0.3"/>
        <path id="Vector-4" data-name="Vector" d="M5.938,1.875h-5A.944.944,0,0,1,0,.938.944.944,0,0,1,.938,0h5a.944.944,0,0,1,.938.938A.944.944,0,0,1,5.938,1.875Z" transform="translate(11.563 12.813)" fill="#cca079" stroke="#cca079" stroke-width="0.3"/>
        <path id="Vector-5" data-name="Vector" d="M5.938,1.875h-5A.944.944,0,0,1,0,.938.944.944,0,0,1,.938,0h5a.944.944,0,0,1,.938.938A.944.944,0,0,1,5.938,1.875Z" transform="translate(11.563 16.563)" fill="#cca079" stroke="#cca079" stroke-width="0.3"/>
        <path id="Vector-6" data-name="Vector" d="M.938,5.625A.944.944,0,0,1,0,4.688V.938A.944.944,0,0,1,.938,0a.944.944,0,0,1,.938.938v3.75A.944.944,0,0,1,.938,5.625Z" transform="translate(14.063 22.813)" fill="#cca079" stroke="#cca079" stroke-width="0.3"/>
        <path id="Vector-7" data-name="Vector" d="M0,0H30V30H0Z" fill="none" stroke="#cca079" stroke-width="0.3" opacity="0"/>
      </g>
    </g>
  </g>
</svg>
