<svg id="calendarEmp" xmlns="http://www.w3.org/2000/svg" width="18" height="18" viewBox="0 0 18 18">
  <g id="vuesax_outline_calendar" data-name="vuesax/outline/calendar">
    <g id="calendar">
      <path id="Vector" d="M.563,3.375A.567.567,0,0,1,0,2.813V.563A.567.567,0,0,1,.563,0a.567.567,0,0,1,.563.563v2.25A.567.567,0,0,1,.563,3.375Z" transform="translate(5.438 0.938)" fill="#292d32"/>
      <path id="Vector-2" data-name="Vector" d="M.563,3.375A.567.567,0,0,1,0,2.813V.563A.567.567,0,0,1,.563,0a.567.567,0,0,1,.563.563v2.25A.567.567,0,0,1,.563,3.375Z" transform="translate(11.438 0.938)" fill="#292d32"/>
      <path id="Vector-3" data-name="Vector" d="M.75,1.5a.747.747,0,0,1-.285-.06.774.774,0,0,1-.247-.158A.775.775,0,0,1,0,.746.747.747,0,0,1,.06.461.866.866,0,0,1,.218.213.774.774,0,0,1,.465.056a.766.766,0,0,1,.818.158A.789.789,0,0,1,1.5.746,1.127,1.127,0,0,1,1.485.9a.477.477,0,0,1-.045.135.568.568,0,0,1-.067.135,1.182,1.182,0,0,1-.09.112A.789.789,0,0,1,.75,1.5Z" transform="translate(5.625 9.379)" fill="#292d32"/>
      <path id="Vector-4" data-name="Vector" d="M.75,1.5a.747.747,0,0,1-.285-.06.774.774,0,0,1-.247-.158A.775.775,0,0,1,0,.749.747.747,0,0,1,.06.464.866.866,0,0,1,.218.217.774.774,0,0,1,.465.059a.752.752,0,0,1,.818.158A.789.789,0,0,1,1.5.749,1.127,1.127,0,0,1,1.485.9a.477.477,0,0,1-.045.135.568.568,0,0,1-.067.135,1.182,1.182,0,0,1-.09.112A.789.789,0,0,1,.75,1.5Z" transform="translate(8.25 9.376)" fill="#292d32"/>
      <path id="Vector-5" data-name="Vector" d="M.75,1.5a.747.747,0,0,1-.285-.06.774.774,0,0,1-.247-.158l-.09-.112A.568.568,0,0,1,.06,1.034.477.477,0,0,1,.015.9,1.127,1.127,0,0,1,0,.749.789.789,0,0,1,.218.217.774.774,0,0,1,.465.059a.749.749,0,0,1,.818.158A.789.789,0,0,1,1.5.749,1.127,1.127,0,0,1,1.485.9a.477.477,0,0,1-.045.135.568.568,0,0,1-.067.135,1.182,1.182,0,0,1-.09.112A.789.789,0,0,1,.75,1.5Z" transform="translate(10.875 9.376)" fill="#292d32"/>
      <path id="Vector-6" data-name="Vector" d="M.75,1.491a.747.747,0,0,1-.285-.06.866.866,0,0,1-.247-.158A.789.789,0,0,1,0,.741.747.747,0,0,1,.06.456.7.7,0,0,1,.218.208a.785.785,0,0,1,1.065,0A.789.789,0,0,1,1.5.741a.789.789,0,0,1-.218.532A.789.789,0,0,1,.75,1.491Z" transform="translate(5.625 12.009)" fill="#292d32"/>
      <path id="Vector-7" data-name="Vector" d="M.75,1.491a.789.789,0,0,1-.532-.218A.789.789,0,0,1,0,.741.747.747,0,0,1,.06.456.7.7,0,0,1,.218.208a.785.785,0,0,1,1.065,0A.7.7,0,0,1,1.44.456.747.747,0,0,1,1.5.741a.789.789,0,0,1-.218.532A.789.789,0,0,1,.75,1.491Z" transform="translate(8.25 12.009)" fill="#292d32"/>
      <path id="Vector-8" data-name="Vector" d="M.75,1.5a.789.789,0,0,1-.532-.218A.7.7,0,0,1,.06,1.036.747.747,0,0,1,0,.751.747.747,0,0,1,.06.466.7.7,0,0,1,.218.218a.749.749,0,0,1,.675-.2.452.452,0,0,1,.143.045A.568.568,0,0,1,1.17.128a1.182,1.182,0,0,1,.112.09A.789.789,0,0,1,1.5.751a.789.789,0,0,1-.218.532A.789.789,0,0,1,.75,1.5Z" transform="translate(10.875 11.999)" fill="#292d32"/>
      <path id="Vector-9" data-name="Vector" d="M13.313,1.125H.563A.567.567,0,0,1,0,.563.567.567,0,0,1,.563,0h12.75a.567.567,0,0,1,.563.563A.567.567,0,0,1,13.313,1.125Z" transform="translate(2.063 6.255)" fill="#292d32"/>
      <path id="Vector-10" data-name="Vector" d="M10.313,15h-6A3.928,3.928,0,0,1,0,10.688V4.313A3.928,3.928,0,0,1,4.313,0h6a3.928,3.928,0,0,1,4.313,4.313v6.375A3.928,3.928,0,0,1,10.313,15Zm-6-13.875c-2.145,0-3.187,1.043-3.187,3.188v6.375c0,2.145,1.043,3.188,3.188,3.188h6c2.145,0,3.188-1.042,3.188-3.187V4.313c0-2.145-1.042-3.187-3.187-3.187Z" transform="translate(1.688 2.063)" fill="#292d32"/>
      <path id="Vector-11" data-name="Vector" d="M0,0H18V18H0Z" fill="none" opacity="0"/>
    </g>
  </g>
</svg>
