<svg xmlns="http://www.w3.org/2000/svg" width="24" height="24" viewBox="0 0 24 24">
  <g id="checkmark-square-outline" transform="translate(12 12)">
    <g id="checkmark-square-outline-2" data-name="checkmark-square-outline" transform="translate(-12 -12)">
      <g id="checkmark-square">
        <rect id="Rectangle_16350" data-name="Rectangle 16350" width="24" height="24" fill="#012d29" opacity="0"/>
        <path id="Path_60024" data-name="Path 60024" d="M20,11.83a1,1,0,0,0-1,1V18.4a.6.6,0,0,1-.6.6H5.6a.6.6,0,0,1-.6-.6V5.6A.6.6,0,0,1,5.6,5h9.57a1,1,0,1,0,0-2H5.6A2.61,2.61,0,0,0,3,5.6V18.4A2.61,2.61,0,0,0,5.6,21H18.4A2.61,2.61,0,0,0,21,18.4V12.83A1,1,0,0,0,20,11.83Z" fill="#012d29"/>
        <path id="Path_60025" data-name="Path 60025" d="M10.72,11a1,1,0,0,0-1.44,1.38l2.22,2.33a1,1,0,0,0,1.44.01l6.78-7a1,1,0,0,0-1.44-1.4l-6.05,6.26Z" fill="#012d29"/>
      </g>
    </g>
  </g>
</svg>
