<svg id="close-circle" xmlns="http://www.w3.org/2000/svg" width="18" height="18" viewBox="0 0 18 18">
  <g id="vuesax_outline_close-circle" data-name="vuesax/outline/close-circle">
    <g id="close-circle-2" data-name="close-circle">
      <path id="Vector" d="M8.063,16.125a8.063,8.063,0,1,1,8.063-8.062A8.069,8.069,0,0,1,8.063,16.125Zm0-15A6.938,6.938,0,1,0,15,8.063,6.946,6.946,0,0,0,8.063,1.125Z" transform="translate(0.938 0.938)" fill="#fff"/>
      <path id="Vector-2" data-name="Vector" d="M.561,5.368a.556.556,0,0,1-.4-.165.566.566,0,0,1,0-.795L4.408.163A.562.562,0,0,1,5.2.958L.958,5.2A.544.544,0,0,1,.561,5.368Z" transform="translate(6.317 6.317)" fill="#fff"/>
      <path id="Vector-3" data-name="Vector" d="M4.806,5.368a.556.556,0,0,1-.4-.165L.163.958A.562.562,0,0,1,.958.163L5.2,4.408a.566.566,0,0,1,0,.795A.556.556,0,0,1,4.806,5.368Z" transform="translate(6.317 6.317)" fill="#fff"/>
      <path id="Vector-4" data-name="Vector" d="M0,0H18V18H0Z" fill="none" opacity="0"/>
    </g>
  </g>
</svg>
