<svg xmlns="http://www.w3.org/2000/svg" width="584.792" height="464.91" viewBox="0 0 584.792 464.91">
  <g id="Cookies" transform="translate(-668 -234)">
    <g id="Asset_10" data-name="Asset 10" transform="translate(668 234)">
      <g id="Shadow" transform="translate(65.625 438.431)">
        <ellipse id="_Path_" cx="226.771" cy="13.24" rx="226.771" ry="13.24" fill="#f5f5f5"/>
      </g>
      <g id="Background_Complete">
        <g id="Group_26531" data-name="Group 26531" transform="translate(0 29.111)">
          <rect id="Rectangle_16448" data-name="Rectangle 16448" width="584.792" height="0.292" transform="translate(0 382.981)" fill="#ebebeb"/>
          <rect id="Rectangle_16449" data-name="Rectangle 16449" width="38.737" height="0.292" transform="translate(91.859 392.793)" fill="#ebebeb"/>
          <rect id="Rectangle_16450" data-name="Rectangle 16450" width="35.286" height="0.292" transform="translate(155.941 401.226)" fill="#ebebeb"/>
          <rect id="Rectangle_16451" data-name="Rectangle 16451" width="44.737" height="0.292" transform="translate(66.491 403.659)" fill="#ebebeb"/>
          <rect id="Rectangle_16452" data-name="Rectangle 16452" width="18.596" height="0.292" transform="translate(507.6 403.016)" fill="#ebebeb"/>
          <rect id="Rectangle_16453" data-name="Rectangle 16453" width="45.988" height="0.292" transform="translate(457.857 403.016)" fill="#ebebeb"/>
          <rect id="Rectangle_16454" data-name="Rectangle 16454" width="35.474" height="0.292" transform="translate(292.396 392.641)" fill="#ebebeb"/>
          <rect id="Rectangle_16455" data-name="Rectangle 16455" width="84.327" height="0.292" transform="translate(332.946 392.641)" fill="#ebebeb"/>
          <path id="Path_60209" data-name="Path 60209" d="M270.725,355.707H44.878a6.684,6.684,0,0,1-6.678-6.678V31.568a6.684,6.684,0,0,1,6.678-6.678H270.725a6.684,6.684,0,0,1,6.678,6.678v317.46A6.684,6.684,0,0,1,270.725,355.707ZM44.878,25.182a6.394,6.394,0,0,0-6.386,6.386v317.46a6.394,6.394,0,0,0,6.386,6.386H270.725a6.394,6.394,0,0,0,6.386-6.386V31.568a6.394,6.394,0,0,0-6.386-6.386Z" transform="translate(6.478 -24.89)" fill="#ebebeb"/>
          <path id="Path_60210" data-name="Path 60210" d="M487.025,355.707H261.178a6.684,6.684,0,0,1-6.678-6.678V31.568a6.684,6.684,0,0,1,6.678-6.678H487.025a6.684,6.684,0,0,1,6.678,6.678v317.46A6.684,6.684,0,0,1,487.025,355.707ZM261.178,25.182a6.394,6.394,0,0,0-6.386,6.386v317.46a6.394,6.394,0,0,0,6.386,6.386H487.025a6.394,6.394,0,0,0,6.386-6.386V31.568a6.394,6.394,0,0,0-6.386-6.386Z" transform="translate(43.159 -24.89)" fill="#ebebeb"/>
        </g>
        <g id="Group_26539" data-name="Group 26539" transform="translate(63.606)">
          <g id="Group_26532" data-name="Group 26532" transform="translate(255.424 259.066)">
            <rect id="Rectangle_16456" data-name="Rectangle 16456" width="25.345" height="233.531" transform="translate(165.132 0) rotate(45)" fill="#ebebeb"/>
            <path id="Path_60211" data-name="Path 60211" d="M368.071,275.988,350.153,258.07,325.72,282.491l16.433,26.21Z" transform="translate(-263.793 -179.301)" fill="#e0e0e0"/>
            <rect id="Rectangle_16457" data-name="Rectangle 16457" width="8.444" height="233.531" transform="translate(23.884 189.013) rotate(-135)" fill="#e0e0e0"/>
            <rect id="Rectangle_16458" data-name="Rectangle 16458" width="25.345" height="233.531" transform="translate(0.004 23.894) rotate(-45)" fill="#ebebeb"/>
            <rect id="Rectangle_16459" data-name="Rectangle 16459" width="8.444" height="233.531" transform="translate(189.012 165.139) rotate(135)" fill="#e0e0e0"/>
          </g>
          <g id="Group_26533" data-name="Group 26533" transform="translate(0 300.975)">
            <rect id="Rectangle_16460" data-name="Rectangle 16460" width="19.731" height="181.753" transform="translate(128.52) rotate(45)" fill="#ebebeb"/>
            <path id="Path_60212" data-name="Path 60212" d="M128.559,292.923,114.606,278.97,95.6,297.987l12.784,20.386Z" transform="translate(-47.394 -217.666)" fill="#e0e0e0"/>
            <rect id="Rectangle_16461" data-name="Rectangle 16461" width="6.573" height="181.753" transform="translate(18.601 147.114) rotate(-135)" fill="#e0e0e0"/>
            <rect id="Rectangle_16462" data-name="Rectangle 16462" width="19.731" height="181.753" transform="translate(0.007 18.597) rotate(-45)" fill="#ebebeb"/>
            <rect id="Rectangle_16463" data-name="Rectangle 16463" width="6.573" height="181.753" transform="translate(147.114 128.521) rotate(135)" fill="#e0e0e0"/>
          </g>
          <path id="Path_60221" data-name="Path 60221" d="M422.815,74.583a16,16,0,0,0-3.626.433h-.012c-1.544-3.45-4.971-5.7-9.591-5.7a18.166,18.166,0,0,0-9.871,3.2h0c-1.965-6.585-7.848-10.994-16.058-10.994-11.684,0-23.918,8.924-28.339,20.339a14.737,14.737,0,0,0-3.286-.363c-.363,0-.737.012-1.1.035-10.082.667-9.322,15.871.784,15.871h71.813a7.922,7.922,0,0,0,6.4-3.216,18.455,18.455,0,0,0,2.8-5.567c2.292-7.754-2.14-14.047-9.895-14.047Z" transform="translate(-5.312 10.435)" fill="#f0f0f0"/>
          <path id="Path_60222" data-name="Path 60222" d="M183.237,17.626C181.67,7.24,173.39,0,161.284,0c-9.918,0-20.14,4.854-27.743,12.327h0a11.646,11.646,0,0,0-8.012-2.854c-8.4,0-17.2,6.807-19.684,15.2a15.146,15.146,0,0,0-.62,3.813H105.2s-.117.094-.175.129c-6.947,4.725-3.462,15.661,4.947,15.661h73.953a8.475,8.475,0,0,0,7.134-3.789,21.721,21.721,0,0,0,2.655-5.719c2.643-8.947-2.012-16.3-10.491-17.146Z" transform="translate(-46.424)" fill="#f0f0f0"/>
          <path id="Path_60223" data-name="Path 60223" d="M263.214,117.754c-2.152-14.281-13.544-24.234-30.187-24.234-13.637,0-27.684,6.678-38.152,16.959h0a16.044,16.044,0,0,0-11.017-3.93c-11.544,0-23.661,9.357-27.064,20.9a20.912,20.912,0,0,0-.854,5.251h-.023c-.082.07-.152.117-.234.175-9.567,6.5-4.819,21.52,6.749,21.52h97.45A18.44,18.44,0,0,0,277.6,141.473l.047-.14c3.626-12.3-2.76-22.421-14.421-23.567Z" transform="translate(-38.073 15.86)" fill="#f5f5f5"/>
        </g>
      </g>
    </g>
    <g id="Layer_1-2" transform="translate(810.623 408.532)">
      <g id="Group_26542" data-name="Group 26542" transform="translate(-0.018 -0.002)">
        <g id="Group_26541" data-name="Group 26541">
          <path id="Path_60228" data-name="Path 60228" d="M198.51,111.853a101.746,101.746,0,0,1-2.035,12.809c-1.1,4.216-4.043,7.751-5.643,11.7-1.5,3.684-1.088,8.271-2.991,11.7-1.923,3.47-5.171,6.175-7.477,9.363-2.322,3.212-4.212,6.828-6.88,9.726s-6.578,4.567-9.576,7.13-5.727,5.437-9.012,7.634a104.984,104.984,0,0,1-21.2,10.3,97.644,97.644,0,0,1-11.237,3.571c-3.817.9-7.557,2.632-11.511,3.075-3.889.435-7.912-1.153-11.9-1.185-3.906-.032-7.795.282-11.761-.222a99.251,99.251,0,0,1-11.072-2.092c-3.7-.9-7.884-.3-11.4-1.6-3.571-1.318-6.678-3.849-10.028-5.542-3.39-1.713-7.069-3.027-10.209-5.095-3.164-2.084-5.55-5.276-8.44-7.69a99.348,99.348,0,0,1-8.009-7.948,99.8,99.8,0,0,1-7.581-8.363,99.364,99.364,0,0,1-6.352-9.355c-1.919-3.245-4.413-6.251-5.957-9.709-1.536-3.438-3.474-6.868-4.615-10.483a100.324,100.324,0,0,1-2.5-11.185C.417,114.714.9,110.78.618,106.984A98.761,98.761,0,0,1-.007,96.875c.085-3.333,1.657-6.562,2.088-9.943.081-.649.464-1.229.568-1.874.58-3.962.568-7.9,1.592-11.676a98.1,98.1,0,0,1,3.7-11.209c1.491-3.692,3.885-6.828,5.784-10.27,1.919-3.478,2.064-8.065,4.365-11.261,2.318-3.22,5.856-5.518,8.524-8.42a100.3,100.3,0,0,1,8.343-8.42c3-2.575,5.51-5.953,8.794-8.154s7.888-2.193,11.414-3.994S61.486,6.4,65.211,5.033c3.7-1.358,8-.854,11.862-1.765C80.9,2.365,84.617.894,88.575.45A98.888,98.888,0,0,1,100.429.007c3.91.032,7.747,1.052,11.721,1.556,3.825.484,7.658.4,11.314,1.3,3.736.915,7.755.979,11.293,2.293a101.607,101.607,0,0,1,10.6,4.55c3.41,1.737,5.86,5.155,9.02,7.255a99.874,99.874,0,0,1,9.4,6.429,99.542,99.542,0,0,1,8.271,7.851c2.612,2.777,4.579,6.042,6.852,9.093a99.579,99.579,0,0,1,6.57,9.27c1.91,3.285,5.123,5.993,6.65,9.492,1.519,3.478.778,7.843,1.894,11.5,1.1,3.623,3.914,6.872,4.6,10.64.681,3.72-1.173,7.775-.927,11.6.246,3.764.818,7.452.625,11.3a48.153,48.153,0,0,1,.185,7.714Z" transform="translate(0.018 0.002)" fill="#cca079"/>
          <path id="Path_60262" data-name="Path 60262" d="M198.51,111.853a101.746,101.746,0,0,1-2.035,12.809c-1.1,4.216-4.043,7.751-5.643,11.7-1.5,3.684-1.088,8.271-2.991,11.7-1.923,3.47-5.171,6.175-7.477,9.363-2.322,3.212-4.212,6.828-6.88,9.726s-6.578,4.567-9.576,7.13-5.727,5.437-9.012,7.634a104.984,104.984,0,0,1-21.2,10.3,97.644,97.644,0,0,1-11.237,3.571c-3.817.9-7.557,2.632-11.511,3.075-3.889.435-7.912-1.153-11.9-1.185-3.906-.032-7.795.282-11.761-.222a99.251,99.251,0,0,1-11.072-2.092c-3.7-.9-7.884-.3-11.4-1.6-3.571-1.318-6.678-3.849-10.028-5.542-3.39-1.713-7.069-3.027-10.209-5.095-3.164-2.084-5.55-5.276-8.44-7.69a99.348,99.348,0,0,1-8.009-7.948,99.8,99.8,0,0,1-7.581-8.363,99.364,99.364,0,0,1-6.352-9.355c-1.919-3.245-4.413-6.251-5.957-9.709-1.536-3.438-3.474-6.868-4.615-10.483a100.324,100.324,0,0,1-2.5-11.185C.417,114.714.9,110.78.618,106.984A98.761,98.761,0,0,1-.007,96.875c.085-3.333,1.657-6.562,2.088-9.943.081-.649.464-1.229.568-1.874.58-3.962.568-7.9,1.592-11.676a98.1,98.1,0,0,1,3.7-11.209c1.491-3.692,3.885-6.828,5.784-10.27,1.919-3.478,2.064-8.065,4.365-11.261,2.318-3.22,5.856-5.518,8.524-8.42a100.3,100.3,0,0,1,8.343-8.42c3-2.575,5.51-5.953,8.794-8.154s7.888-2.193,11.414-3.994S61.486,6.4,65.211,5.033c3.7-1.358,8-.854,11.862-1.765C80.9,2.365,84.617.894,88.575.45A98.888,98.888,0,0,1,100.429.007c3.91.032,7.747,1.052,11.721,1.556,3.825.484,7.658.4,11.314,1.3,3.736.915,7.755.979,11.293,2.293a101.607,101.607,0,0,1,10.6,4.55c3.41,1.737,5.86,5.155,9.02,7.255a99.874,99.874,0,0,1,9.4,6.429,99.542,99.542,0,0,1,8.271,7.851c2.612,2.777,4.579,6.042,6.852,9.093a99.579,99.579,0,0,1,6.57,9.27c1.91,3.285,5.123,5.993,6.65,9.492,1.519,3.478.778,7.843,1.894,11.5,1.1,3.623,3.914,6.872,4.6,10.64.681,3.72-1.173,7.775-.927,11.6.246,3.764.818,7.452.625,11.3a48.153,48.153,0,0,1,.185,7.714Z" transform="translate(0.018 0.002)" fill="rgba(0,0,0,0.2)"/>
          <path id="Path_60229" data-name="Path 60229" d="M202.778,123.485a93.592,93.592,0,0,1-1.858,11.7c-1,3.853-3.692,7.082-5.155,10.689-1.366,3.365-1,7.553-2.733,10.693-1.757,3.172-4.728,5.643-6.832,8.557-2.12,2.934-3.849,6.239-6.288,8.887s-6.009,4.172-8.75,6.513-5.232,4.97-8.234,6.973a91.135,91.135,0,0,1-9.431,5.256,90.007,90.007,0,0,1-9.939,4.151,89.924,89.924,0,0,1-10.266,3.265c-3.49.822-6.9,2.406-10.516,2.809-3.555.4-7.227-1.052-10.87-1.084-3.567-.028-7.122.258-10.745-.2a91.115,91.115,0,0,1-10.117-1.91c-3.386-.826-7.2-.274-10.411-1.459-3.261-1.2-6.1-3.519-9.161-5.062-3.1-1.564-6.457-2.765-9.327-4.655-2.89-1.906-5.07-4.82-7.71-7.029a90.8,90.8,0,0,1-7.315-7.263,91.242,91.242,0,0,1-6.924-7.642,91.024,91.024,0,0,1-5.8-8.549c-1.753-2.966-4.03-5.711-5.441-8.871-1.4-3.14-3.176-6.275-4.216-9.58a93.556,93.556,0,0,1-2.289-10.217c-.649-3.365-.2-6.961-.464-10.427a89.913,89.913,0,0,1-.568-9.234c.077-3.043,1.515-6,1.906-9.085.077-.592.423-1.124.52-1.713.532-3.619.52-7.219,1.455-10.669A89.349,89.349,0,0,1,28.682,78.09c1.362-3.374,3.551-6.239,5.284-9.383,1.753-3.18,1.886-7.368,3.986-10.29,2.116-2.942,5.348-5.038,7.787-7.694a91.553,91.553,0,0,1,7.626-7.69c2.745-2.35,5.034-5.441,8.037-7.452s7.206-2,10.431-3.648,5.772-4.8,9.173-6.05c3.378-1.241,7.3-.778,10.838-1.612,3.494-.826,6.892-2.168,10.507-2.575a90.1,90.1,0,0,1,10.822-.4c3.571.028,7.078.959,10.709,1.423,3.494.443,7,.367,10.338,1.185,3.414.834,7.086.895,10.318,2.1a91.972,91.972,0,0,1,9.689,4.159c3.116,1.588,5.356,4.712,8.238,6.626a90.431,90.431,0,0,1,8.589,5.876,90.817,90.817,0,0,1,7.557,7.174c2.386,2.535,4.184,5.522,6.259,8.307a90.431,90.431,0,0,1,6.005,8.472c1.745,3,4.683,5.477,6.078,8.674,1.386,3.176.709,7.166,1.729,10.5,1.012,3.309,3.575,6.279,4.2,9.721.621,3.4-1.072,7.106-.846,10.6a89.491,89.491,0,0,1,.572,10.322,44,44,0,0,1,.169,7.049Z" transform="translate(-12.77 -12.706)" fill="#cca079"/>
          <path id="Path_60230" data-name="Path 60230" d="M125.05,164.892a9.613,9.613,0,1,1-19.068-2.418A9.611,9.611,0,1,1,125.05,164.9Z" transform="translate(-63.211 -91.915)" fill="#7b624c"/>
          <path id="Path_60231" data-name="Path 60231" d="M122.19,154.412a9.613,9.613,0,1,1-19.068-2.418,9.611,9.611,0,1,1,19.068,2.422Z" transform="translate(-61.504 -85.659)" fill="#a38061"/>
          <path id="Path_60232" data-name="Path 60232" d="M116.207,156.786c-2.245,2.571-5.973,3.079-8.319,1.028s-2.342-5.808-.1-8.379,5.925-3.031,8.271-.983,2.386,5.76.141,8.331Z" transform="translate(-63.34 -87.852)" fill="#fff" opacity="0.05"/>
          <path id="Path_60233" data-name="Path 60233" d="M266.256,379.419a6.133,6.133,0,1,1-5.34-6.852,6.163,6.163,0,0,1,5.34,6.852Z" transform="translate(-151.642 -222.374)" fill="#7b624c"/>
          <path id="Path_60234" data-name="Path 60234" d="M263.916,374.089a6.133,6.133,0,1,1-5.34-6.852,6.163,6.163,0,0,1,5.34,6.852Z" transform="translate(-150.245 -219.193)" fill="#a38061"/>
          <path id="Path_60235" data-name="Path 60235" d="M262.1,373.1a3.977,3.977,0,1,1-3.478-4.288A3.912,3.912,0,0,1,262.1,373.1Z" transform="translate(-151.731 -220.143)" fill="#fff" opacity="0.05"/>
          <path id="Path_60236" data-name="Path 60236" d="M296.889,93.411A14.178,14.178,0,1,1,274.27,80.578a14.137,14.137,0,0,1,22.619,12.833Z" transform="translate(-160.366 -46.289)" fill="#7b624c"/>
          <path id="Path_60237" data-name="Path 60237" d="M290.019,87.261A14.178,14.178,0,1,1,267.4,74.428a14.137,14.137,0,0,1,22.619,12.833Z" transform="translate(-156.265 -42.618)" fill="#a38061"/>
          <path id="Path_60238" data-name="Path 60238" d="M287.372,79.347a8.522,8.522,0,0,1-.246,7.033,10.935,10.935,0,0,1-5.5,5.369,11.076,11.076,0,0,1-7.706.5,8.59,8.59,0,0,1-5.324-4.639A8.492,8.492,0,0,1,268.9,80.6a10.947,10.947,0,0,1,13.1-5.8,8.522,8.522,0,0,1,5.365,4.546Z" transform="translate(-159.962 -44.361)" fill="#fff" opacity="0.05"/>
          <path id="Path_60239" data-name="Path 60239" d="M373.7,193.658a8.788,8.788,0,0,1-17.436-2.213,8.79,8.79,0,0,1,17.436,2.213Z" transform="translate(-212.627 -109.815)" fill="#7b624c"/>
          <path id="Path_60240" data-name="Path 60240" d="M370.684,187.368a8.788,8.788,0,0,1-17.436-2.213,8.79,8.79,0,0,1,17.436,2.213Z" transform="translate(-210.824 -106.06)" fill="#a38061"/>
          <path id="Path_60241" data-name="Path 60241" d="M369.29,183.4c.774,2.475-1.229,5.34-4.405,6.332s-6.433-.218-7.211-2.7,1.237-5.248,4.409-6.239,6.429.125,7.2,2.6Z" transform="translate(-213.408 -107.711)" fill="#fff" opacity="0.05"/>
          <path id="Path_60242" data-name="Path 60242" d="M219.835,223.454a5.16,5.16,0,1,1-4.486-5.824,5.235,5.235,0,0,1,4.49,5.82Z" transform="translate(-125.088 -129.89)" fill="#7b624c"/>
          <path id="Path_60243" data-name="Path 60243" d="M218.765,218.524a5.16,5.16,0,1,1-4.486-5.824,5.235,5.235,0,0,1,4.49,5.82Z" transform="translate(-124.449 -126.947)" fill="#a38061"/>
          <path id="Path_60244" data-name="Path 60244" d="M219.325,216.983a3.4,3.4,0,0,1-3.293,3.462,3.363,3.363,0,0,1-3.893-2.721,3.4,3.4,0,0,1,3.253-3.507,3.442,3.442,0,0,1,3.934,2.769Z" transform="translate(-126.621 -127.865)" fill="#fff" opacity="0.05"/>
          <path id="Path_60245" data-name="Path 60245" d="M347.355,285.513a17.62,17.62,0,0,1-20.04,15.542,18.289,18.289,0,0,1-15.453-20.044,17.59,17.59,0,0,1,19.963-15.485,18.433,18.433,0,0,1,15.529,19.991Z" transform="translate(-186.076 -158.415)" fill="#7b624c"/>
          <path id="Path_60246" data-name="Path 60246" d="M343.855,275.509a17.619,17.619,0,0,1-20.039,15.546,18.289,18.289,0,0,1-15.453-20.044,17.59,17.59,0,0,1,19.963-15.485,18.433,18.433,0,0,1,15.529,19.991Z" transform="translate(-183.987 -152.445)" fill="#a38061"/>
          <path id="Path_60247" data-name="Path 60247" d="M339.93,267.876a11.962,11.962,0,0,1,1.685,9.318,13.341,13.341,0,0,1-5.747,7.988,13.065,13.065,0,0,1-9.564,1.87,11.725,11.725,0,0,1-7.888-5.062,11.866,11.866,0,0,1-1.665-9.282,13.231,13.231,0,0,1,5.715-7.96,12.965,12.965,0,0,1,9.532-1.87,11.736,11.736,0,0,1,7.936,5Z" transform="translate(-188.889 -156.791)" fill="#fff" opacity="0.05"/>
          <path id="Path_60248" data-name="Path 60248" d="M158.934,367.263a14.9,14.9,0,0,1-16.61,12.97,14.593,14.593,0,0,1-12.918-16.718,15.326,15.326,0,0,1,16.678-12.893,14.53,14.53,0,0,1,12.849,16.642Z" transform="translate(-77.165 -209.235)" fill="#7b624c"/>
          <path id="Path_60249" data-name="Path 60249" d="M156.974,358.963a14.9,14.9,0,0,1-16.61,12.97,14.593,14.593,0,0,1-12.918-16.718,15.326,15.326,0,0,1,16.678-12.893,14.53,14.53,0,0,1,12.849,16.642Z" transform="translate(-75.995 -204.281)" fill="#a38061"/>
          <path id="Path_60250" data-name="Path 60250" d="M151.432,362.779a12.865,12.865,0,0,1-6.227,5.683,7.864,7.864,0,0,1-11.2-6.251,13.17,13.17,0,0,1,1.777-8.331,12.677,12.677,0,0,1,6.284-5.55,7.75,7.75,0,0,1,11.136,6.163A13.03,13.03,0,0,1,151.432,362.779Z" transform="translate(-79.916 -207.488)" fill="#fff" opacity="0.05"/>
        </g>
        <path id="Path_60251" data-name="Path 60251" d="M134.453,235.327a2.486,2.486,0,1,1-2.132-2.914A2.558,2.558,0,0,1,134.453,235.327Z" transform="translate(-77.301 -138.728)" fill="#7b624c"/>
        <path id="Path_60252" data-name="Path 60252" d="M130.7,264.077a2.411,2.411,0,1,1-2.088-2.7A2.41,2.41,0,0,1,130.7,264.077Z" transform="translate(-75.15 -156.019)" fill="#7b624c"/>
        <path id="Path_60253" data-name="Path 60253" d="M72.323,260.126a3.612,3.612,0,1,1-3.128-4.039A3.612,3.612,0,0,1,72.323,260.126Z" transform="translate(-38.871 -152.854)" fill="#7b624c"/>
        <path id="Path_60254" data-name="Path 60254" d="M143.356,313.583a1.91,1.91,0,1,1-1.653-2.136A1.908,1.908,0,0,1,143.356,313.583Z" transform="translate(-83.298 -185.909)" fill="#7b624c"/>
        <path id="Path_60255" data-name="Path 60255" d="M210.811,303.471a3.717,3.717,0,1,1-3.22-4.155A3.716,3.716,0,0,1,210.811,303.471Z" transform="translate(-121.416 -178.659)" fill="#7b624c"/>
        <circle id="Ellipse_11768" data-name="Ellipse 11768" cx="5.832" cy="5.832" r="5.832" transform="matrix(0.673, -0.739, 0.739, 0.673, 107.46, 109.559)" fill="#7b624c"/>
        <path id="Path_60256" data-name="Path 60256" d="M303.875,202.513a1.838,1.838,0,1,1-1.592-2.056A1.838,1.838,0,0,1,303.875,202.513Z" transform="translate(-179.205 -119.654)" fill="#7b624c"/>
        <path id="Path_60257" data-name="Path 60257" d="M201.35,166.8a1.861,1.861,0,1,1-1.612-2.08A1.86,1.86,0,0,1,201.35,166.8Z" transform="translate(-117.976 -98.319)" fill="#7b624c"/>
        <path id="Path_60258" data-name="Path 60258" d="M229.162,122.5a3.266,3.266,0,1,1-2.829-3.652A3.267,3.267,0,0,1,229.162,122.5Z" transform="translate(-132.907 -70.932)" fill="#7b624c"/>
        <path id="Path_60259" data-name="Path 60259" d="M154.454,103.462a5.336,5.336,0,1,1-4.623-5.965A5.339,5.339,0,0,1,154.454,103.462Z" transform="translate(-85.849 -58.174)" fill="#7b624c"/>
        <circle id="Ellipse_11769" data-name="Ellipse 11769" cx="1.306" cy="1.306" r="1.306" transform="translate(162.371 59.022) rotate(-9.4)" fill="#7b624c"/>
        <path id="Path_60260" data-name="Path 60260" d="M424.141,190.764a4.453,4.453,0,1,1-3.857-4.978A4.454,4.454,0,0,1,424.141,190.764Z" transform="translate(-247.89 -110.883)" fill="#7b624c"/>
        <path id="Path_60261" data-name="Path 60261" d="M348.76,404.925a5.908,5.908,0,1,1-5.115-6.606A5.906,5.906,0,0,1,348.76,404.925Z" transform="translate(-201.161 -237.748)" fill="#7b624c"/>
      </g>
    </g>
    <g id="Layer_1-2-2" data-name="Layer_1-2" transform="translate(990.594 385.97)">
      <g id="Group_26542-2" data-name="Group 26542" transform="translate(-0.018 -0.002)">
        <g id="Group_26541-2" data-name="Group 26541">
          <path id="Path_60228-2" data-name="Path 60228" d="M80.3,45.252a41.164,41.164,0,0,1-.823,5.182c-.445,1.706-1.636,3.136-2.283,4.734-.6,1.49-.44,3.346-1.21,4.735a40.774,40.774,0,0,1-3.025,3.788,41.237,41.237,0,0,1-2.784,3.935C69.093,68.8,67.516,69.473,66.3,70.51A40.465,40.465,0,0,1,62.657,73.6a42.474,42.474,0,0,1-8.577,4.166,39.5,39.5,0,0,1-4.546,1.445,40.309,40.309,0,0,1-4.657,1.244c-1.574.176-3.2-.466-4.814-.479a39.709,39.709,0,0,1-4.758-.09,40.154,40.154,0,0,1-4.479-.846c-1.5-.365-3.19-.122-4.611-.646a40.7,40.7,0,0,1-4.057-2.242,40.958,40.958,0,0,1-4.13-2.061,41.027,41.027,0,0,1-3.415-3.111,40.2,40.2,0,0,1-3.24-3.216A40.375,40.375,0,0,1,8.3,64.379a40.2,40.2,0,0,1-2.57-3.785,40.615,40.615,0,0,1-2.41-3.928,40.9,40.9,0,0,1-1.867-4.241A40.589,40.589,0,0,1,.445,47.9a41.184,41.184,0,0,1-.205-4.618,39.956,39.956,0,0,1-.253-4.09c.034-1.349.67-2.655.845-4.023.033-.263.188-.5.23-.758a40.318,40.318,0,0,1,.644-4.724,39.688,39.688,0,0,1,1.5-4.535A39.284,39.284,0,0,1,5.544,21c.776-1.407.835-3.263,1.766-4.556a40.97,40.97,0,0,1,3.449-3.406,40.58,40.58,0,0,1,3.375-3.406,41.6,41.6,0,0,1,3.558-3.3c1.327-.889,3.191-.887,4.618-1.616s2.555-2.126,4.062-2.679,3.235-.346,4.8-.714A39.613,39.613,0,0,1,35.825.181,40.008,40.008,0,0,1,40.62,0a41.107,41.107,0,0,1,4.742.629,40.918,40.918,0,0,1,4.577.525,41.647,41.647,0,0,1,4.569.928A41.108,41.108,0,0,1,58.8,3.925c1.38.7,2.371,2.086,3.649,2.935a40.406,40.406,0,0,1,3.8,2.6A40.272,40.272,0,0,1,69.6,12.637a40.189,40.189,0,0,1,2.772,3.679,40.288,40.288,0,0,1,2.658,3.75c.773,1.329,2.073,2.425,2.691,3.84s.315,3.173.766,4.652,1.583,2.78,1.862,4.3c.276,1.505-.475,3.145-.375,4.695a39,39,0,0,1,.253,4.571A19.481,19.481,0,0,1,80.3,45.25Z" transform="translate(0.018 0.002)" fill="#cca079"/>
          <path id="Path_60262-2" data-name="Path 60262" d="M80.3,45.252a41.164,41.164,0,0,1-.823,5.182c-.445,1.706-1.636,3.136-2.283,4.734-.6,1.49-.44,3.346-1.21,4.735a40.774,40.774,0,0,1-3.025,3.788,41.237,41.237,0,0,1-2.784,3.935C69.093,68.8,67.516,69.473,66.3,70.51A40.465,40.465,0,0,1,62.657,73.6a42.474,42.474,0,0,1-8.577,4.166,39.5,39.5,0,0,1-4.546,1.445,40.309,40.309,0,0,1-4.657,1.244c-1.574.176-3.2-.466-4.814-.479a39.709,39.709,0,0,1-4.758-.09,40.154,40.154,0,0,1-4.479-.846c-1.5-.365-3.19-.122-4.611-.646a40.7,40.7,0,0,1-4.057-2.242,40.958,40.958,0,0,1-4.13-2.061,41.027,41.027,0,0,1-3.415-3.111,40.2,40.2,0,0,1-3.24-3.216A40.375,40.375,0,0,1,8.3,64.379a40.2,40.2,0,0,1-2.57-3.785,40.615,40.615,0,0,1-2.41-3.928,40.9,40.9,0,0,1-1.867-4.241A40.589,40.589,0,0,1,.445,47.9a41.184,41.184,0,0,1-.205-4.618,39.956,39.956,0,0,1-.253-4.09c.034-1.349.67-2.655.845-4.023.033-.263.188-.5.23-.758a40.318,40.318,0,0,1,.644-4.724,39.688,39.688,0,0,1,1.5-4.535A39.284,39.284,0,0,1,5.544,21c.776-1.407.835-3.263,1.766-4.556a40.97,40.97,0,0,1,3.449-3.406,40.58,40.58,0,0,1,3.375-3.406,41.6,41.6,0,0,1,3.558-3.3c1.327-.889,3.191-.887,4.618-1.616s2.555-2.126,4.062-2.679,3.235-.346,4.8-.714A39.613,39.613,0,0,1,35.825.181,40.008,40.008,0,0,1,40.62,0a41.107,41.107,0,0,1,4.742.629,40.918,40.918,0,0,1,4.577.525,41.647,41.647,0,0,1,4.569.928A41.108,41.108,0,0,1,58.8,3.925c1.38.7,2.371,2.086,3.649,2.935a40.406,40.406,0,0,1,3.8,2.6A40.272,40.272,0,0,1,69.6,12.637a40.189,40.189,0,0,1,2.772,3.679,40.288,40.288,0,0,1,2.658,3.75c.773,1.329,2.073,2.425,2.691,3.84s.315,3.173.766,4.652,1.583,2.78,1.862,4.3c.276,1.505-.475,3.145-.375,4.695a39,39,0,0,1,.253,4.571A19.481,19.481,0,0,1,80.3,45.25Z" transform="translate(0.018 0.002)" fill="rgba(0,0,0,0.2)"/>
          <path id="Path_60229-2" data-name="Path 60229" d="M94.784,62.634a37.866,37.866,0,0,1-.752,4.735c-.406,1.559-1.494,2.865-2.086,4.324-.553,1.362-.4,3.056-1.106,4.326a37.472,37.472,0,0,1-2.764,3.462,37.62,37.62,0,0,1-2.544,3.6c-.991,1.075-2.431,1.688-3.54,2.635a36.48,36.48,0,0,1-3.331,2.821,36.872,36.872,0,0,1-3.816,2.126,36.416,36.416,0,0,1-4.021,1.68,36.381,36.381,0,0,1-4.153,1.321A36.663,36.663,0,0,1,62.418,94.8c-1.438.161-2.924-.426-4.4-.439a36.245,36.245,0,0,1-4.347-.082A36.863,36.863,0,0,1,49.58,93.5c-1.37-.334-2.914-.111-4.212-.59a37.217,37.217,0,0,1-3.706-2.048,37.324,37.324,0,0,1-3.773-1.883,37.5,37.5,0,0,1-3.119-2.844,36.735,36.735,0,0,1-2.96-2.938,36.913,36.913,0,0,1-2.8-3.092,36.827,36.827,0,0,1-2.348-3.459,37.177,37.177,0,0,1-2.2-3.589,37.1,37.1,0,0,1-1.706-3.876,37.85,37.85,0,0,1-.926-4.134,37.6,37.6,0,0,1-.188-4.218,36.377,36.377,0,0,1-.23-3.736c.031-1.231.613-2.426.771-3.675.031-.24.171-.455.21-.693a37.06,37.06,0,0,1,.589-4.316,36.148,36.148,0,0,1,1.37-4.143,35.915,35.915,0,0,1,2.138-3.8c.709-1.287.763-2.981,1.613-4.163A37.6,37.6,0,0,1,31.25,33.2a37.041,37.041,0,0,1,3.085-3.111,38.272,38.272,0,0,1,3.251-3.015c1.213-.812,2.916-.81,4.22-1.476s2.335-1.942,3.711-2.448,2.955-.315,4.385-.652a36.242,36.242,0,0,1,4.251-1.042,36.452,36.452,0,0,1,4.378-.161,37.19,37.19,0,0,1,4.333.576,37.486,37.486,0,0,1,4.183.479,37.824,37.824,0,0,1,4.174.848,37.21,37.21,0,0,1,3.92,1.683c1.26.642,2.167,1.906,3.333,2.681a36.586,36.586,0,0,1,3.475,2.377,36.742,36.742,0,0,1,3.057,2.9A36.666,36.666,0,0,1,87.539,36.2a36.585,36.585,0,0,1,2.43,3.428c.706,1.215,1.895,2.216,2.459,3.509s.287,2.9.7,4.249,1.446,2.541,1.7,3.933c.251,1.375-.434,2.875-.342,4.29a36.207,36.207,0,0,1,.232,4.176,17.8,17.8,0,0,1,.068,2.852Z" transform="translate(-17.911 -17.815)" fill="#cca079"/>
          <path id="Path_60230-2" data-name="Path 60230" d="M113.649,158.392a3.889,3.889,0,1,1-7.715-.978,3.888,3.888,0,1,1,7.715.98Z" transform="translate(-88.63 -128.867)" fill="#7b624c"/>
          <path id="Path_60231-2" data-name="Path 60231" d="M110.789,147.912a3.889,3.889,0,1,1-7.715-.978,3.888,3.888,0,1,1,7.715.98Z" transform="translate(-86.237 -120.096)" fill="#a38061"/>
          <path id="Path_60232-2" data-name="Path 60232" d="M110.2,151.059a2.275,2.275,0,1,1-3.4-2.974,2.271,2.271,0,1,1,3.4,2.973Z" transform="translate(-88.811 -123.17)" fill="#fff" opacity="0.05"/>
          <path id="Path_60233-2" data-name="Path 60233" d="M258.981,375.31a2.481,2.481,0,1,1-2.161-2.772,2.493,2.493,0,0,1,2.161,2.772Z" transform="translate(-212.611 -311.773)" fill="#7b624c"/>
          <path id="Path_60234-2" data-name="Path 60234" d="M256.641,369.98a2.481,2.481,0,1,1-2.161-2.772,2.493,2.493,0,0,1,2.161,2.772Z" transform="translate(-210.653 -307.312)" fill="#a38061"/>
          <path id="Path_60235-2" data-name="Path 60235" d="M257.389,370.527a1.609,1.609,0,1,1-1.407-1.735,1.583,1.583,0,0,1,1.407,1.735Z" transform="translate(-212.736 -308.644)" fill="#fff" opacity="0.05"/>
          <path id="Path_60236-2" data-name="Path 60236" d="M280.077,83.963a5.736,5.736,0,1,1-9.151-5.192,5.72,5.72,0,0,1,9.151,5.192Z" transform="translate(-224.843 -64.899)" fill="#7b624c"/>
          <path id="Path_60237-2" data-name="Path 60237" d="M273.207,77.813a5.736,5.736,0,1,1-9.151-5.192,5.72,5.72,0,0,1,9.151,5.192Z" transform="translate(-219.093 -59.752)" fill="#a38061"/>
          <path id="Path_60238-2" data-name="Path 60238" d="M275.823,76.35a3.448,3.448,0,0,1-.1,2.845,4.424,4.424,0,0,1-2.224,2.172,4.481,4.481,0,0,1-3.118.2,3.475,3.475,0,0,1-2.154-1.877,3.436,3.436,0,0,1,.124-2.839,4.429,4.429,0,0,1,5.3-2.345,3.448,3.448,0,0,1,2.17,1.839Z" transform="translate(-224.276 -62.196)" fill="#fff" opacity="0.05"/>
          <path id="Path_60239-2" data-name="Path 60239" d="M363.281,187.884a3.555,3.555,0,0,1-7.054-.9,3.556,3.556,0,0,1,7.054.9Z" transform="translate(-298.113 -153.963)" fill="#7b624c"/>
          <path id="Path_60240-2" data-name="Path 60240" d="M360.261,181.594a3.555,3.555,0,0,1-7.054-.9,3.556,3.556,0,0,1,7.054.9Z" transform="translate(-295.586 -148.699)" fill="#a38061"/>
          <path id="Path_60241-2" data-name="Path 60241" d="M362.275,181.636a2.541,2.541,0,0,1-4.7,1.471,2.553,2.553,0,0,1,4.7-1.471Z" transform="translate(-299.209 -151.014)" fill="#fff" opacity="0.05"/>
          <path id="Path_60242-2" data-name="Path 60242" d="M213.715,219.962a2.088,2.088,0,1,1-1.815-2.356,2.118,2.118,0,0,1,1.817,2.355Z" transform="translate(-175.382 -182.108)" fill="#7b624c"/>
          <path id="Path_60243-2" data-name="Path 60243" d="M212.645,215.032a2.088,2.088,0,1,1-1.815-2.356,2.118,2.118,0,0,1,1.817,2.355Z" transform="translate(-174.487 -177.982)" fill="#a38061"/>
          <path id="Path_60244-2" data-name="Path 60244" d="M215.037,215.324a1.376,1.376,0,0,1-1.332,1.4,1.361,1.361,0,0,1-1.575-1.1,1.377,1.377,0,0,1,1.316-1.419,1.392,1.392,0,0,1,1.591,1.12Z" transform="translate(-177.531 -179.269)" fill="#fff" opacity="0.05"/>
          <path id="Path_60245-2" data-name="Path 60245" d="M326.138,273.522a7.129,7.129,0,0,1-8.107,6.288,7.4,7.4,0,0,1-6.252-8.109,7.116,7.116,0,0,1,8.077-6.265,7.458,7.458,0,0,1,6.283,8.088Z" transform="translate(-260.889 -222.101)" fill="#7b624c"/>
          <path id="Path_60246-2" data-name="Path 60246" d="M322.638,263.52a7.128,7.128,0,0,1-8.107,6.289,7.4,7.4,0,0,1-6.252-8.109,7.116,7.116,0,0,1,8.077-6.265,7.458,7.458,0,0,1,6.283,8.088Z" transform="translate(-257.959 -213.732)" fill="#a38061"/>
          <path id="Path_60247-2" data-name="Path 60247" d="M325.94,264.766a4.84,4.84,0,0,1,.682,3.77,5.4,5.4,0,0,1-2.325,3.232,5.286,5.286,0,0,1-3.869.757,4.743,4.743,0,0,1-3.191-2.048,4.8,4.8,0,0,1-.673-3.755,5.353,5.353,0,0,1,2.312-3.221,5.245,5.245,0,0,1,3.856-.757,4.748,4.748,0,0,1,3.211,2.022Z" transform="translate(-264.832 -219.824)" fill="#fff" opacity="0.05"/>
          <path id="Path_60248-2" data-name="Path 60248" d="M141.275,357.286a6.027,6.027,0,0,1-6.72,5.247,5.9,5.9,0,0,1-5.226-6.764,6.2,6.2,0,0,1,6.748-5.216,5.879,5.879,0,0,1,5.2,6.733Z" transform="translate(-108.194 -293.352)" fill="#7b624c"/>
          <path id="Path_60249-2" data-name="Path 60249" d="M139.315,348.986a6.027,6.027,0,0,1-6.72,5.247,5.9,5.9,0,0,1-5.226-6.764,6.2,6.2,0,0,1,6.748-5.216,5.879,5.879,0,0,1,5.2,6.733Z" transform="translate(-106.553 -286.406)" fill="#a38061"/>
          <path id="Path_60250-2" data-name="Path 60250" d="M140.984,353.73a5.2,5.2,0,0,1-2.519,2.3,3.182,3.182,0,0,1-4.532-2.529,5.328,5.328,0,0,1,.719-3.371,5.128,5.128,0,0,1,2.542-2.245,3.135,3.135,0,0,1,4.505,2.493A5.271,5.271,0,0,1,140.984,353.73Z" transform="translate(-112.05 -290.903)" fill="#fff" opacity="0.05"/>
        </g>
        <path id="Path_60251-2" data-name="Path 60251" d="M131.507,233.581a1.006,1.006,0,1,1-.863-1.179A1.035,1.035,0,0,1,131.507,233.581Z" transform="translate(-108.385 -194.499)" fill="#7b624c"/>
        <path id="Path_60252-2" data-name="Path 60252" d="M127.844,262.46a.976.976,0,1,1-.845-1.091A.975.975,0,0,1,127.844,262.46Z" transform="translate(-105.368 -218.742)" fill="#7b624c"/>
        <path id="Path_60253-2" data-name="Path 60253" d="M68.039,257.7a1.461,1.461,0,1,1-1.265-1.634A1.461,1.461,0,0,1,68.039,257.7Z" transform="translate(-54.505 -214.304)" fill="#7b624c"/>
        <path id="Path_60254-2" data-name="Path 60254" d="M141.091,312.3a.773.773,0,1,1-.669-.864A.772.772,0,0,1,141.091,312.3Z" transform="translate(-116.793 -260.648)" fill="#7b624c"/>
        <path id="Path_60255-2" data-name="Path 60255" d="M206.4,300.979a1.5,1.5,0,1,1-1.3-1.681A1.5,1.5,0,0,1,206.4,300.979Z" transform="translate(-170.235 -250.483)" fill="#7b624c"/>
        <circle id="Ellipse_11768-2" data-name="Ellipse 11768" cx="2.36" cy="2.36" r="2.36" transform="matrix(0.673, -0.739, 0.739, 0.673, 43.476, 44.325)" fill="#7b624c"/>
        <path id="Path_60256-2" data-name="Path 60256" d="M301.694,201.28a.744.744,0,1,1-.644-.832A.744.744,0,0,1,301.694,201.28Z" transform="translate(-251.256 -167.757)" fill="#7b624c"/>
        <path id="Path_60257-2" data-name="Path 60257" d="M199.143,165.55a.753.753,0,1,1-.652-.841A.753.753,0,0,1,199.143,165.55Z" transform="translate(-165.412 -137.846)" fill="#7b624c"/>
        <path id="Path_60258-2" data-name="Path 60258" d="M225.288,120.313a1.322,1.322,0,1,1-1.145-1.477A1.322,1.322,0,0,1,225.288,120.313Z" transform="translate(-186.346 -99.449)" fill="#7b624c"/>
        <path id="Path_60259-2" data-name="Path 60259" d="M148.124,99.884a2.159,2.159,0,1,1-1.87-2.413A2.16,2.16,0,0,1,148.124,99.884Z" transform="translate(-120.368 -81.562)" fill="#7b624c"/>
        <circle id="Ellipse_11769-2" data-name="Ellipse 11769" cx="0.528" cy="0.528" r="0.528" transform="translate(65.691 23.879) rotate(-9.4)" fill="#7b624c"/>
        <path id="Path_60260-2" data-name="Path 60260" d="M418.859,187.779a1.8,1.8,0,1,1-1.561-2.014A1.8,1.8,0,0,1,418.859,187.779Z" transform="translate(-347.552 -155.461)" fill="#7b624c"/>
        <path id="Path_60261-2" data-name="Path 60261" d="M341.753,400.964a2.39,2.39,0,1,1-2.069-2.673A2.389,2.389,0,0,1,341.753,400.964Z" transform="translate(-282.038 -333.328)" fill="#7b624c"/>
      </g>
    </g>
  </g>
</svg>
