<svg xmlns="http://www.w3.org/2000/svg" width="80" height="80" viewBox="0 0 80 80">
  <g id="dashLogo04" transform="translate(-2205 323)">
    <circle id="Ellipse_11765" data-name="Ellipse 11765" cx="40" cy="40" r="40" transform="translate(2205 -323)" fill="#007066" opacity="0.1"/>
    <g id="building-4_linear_building-4" data-name="building-4/linear/building-4" transform="translate(2217 -311)">
      <g id="vuesax_linear_building-4" data-name="vuesax/linear/building-4">
        <g id="building-4">
          <path id="Vector" d="M0,44.31V7.047C0,2.357,2.333,0,6.977,0H21.513c4.643,0,6.953,2.357,6.953,7.047V44.31" transform="translate(4.9 7.023)" fill="none" stroke="#cca079" stroke-linecap="round" stroke-linejoin="round" stroke-width="2.5"/>
          <path id="Vector-2" data-name="Vector" d="M0,0H11.55" transform="translate(13.533 19.25)" fill="none" stroke="#cca079" stroke-linecap="round" stroke-linejoin="round" stroke-width="2.5"/>
          <path id="Vector-3" data-name="Vector" d="M0,0H11.55" transform="translate(13.533 28)" fill="none" stroke="#cca079" stroke-linecap="round" stroke-linejoin="round" stroke-width="2.5"/>
          <path id="Vector-4" data-name="Vector" d="M0,8.75V0" transform="translate(19.25 42.583)" fill="none" stroke="#cca079" stroke-linecap="round" stroke-linejoin="round" stroke-width="2.5"/>
          <path id="Vector-5" data-name="Vector" d="M0,0H51.333" transform="translate(2.333 51.333)" fill="none" stroke="#007066" stroke-linecap="round" stroke-linejoin="round" stroke-width="2.5"/>
          <path id="Vector-6" data-name="Vector" d="M0,10.407V0" transform="translate(46.153 40.95)" fill="none" stroke="#007066" stroke-linecap="round" stroke-linejoin="round" stroke-width="2.5"/>
          <path id="Vector-7" data-name="Vector" d="M5.133,0A5.119,5.119,0,0,0,0,5.133v5.3a5.133,5.133,0,0,0,10.267,0v-5.3A5.119,5.119,0,0,0,5.133,0Z" transform="translate(41.067 25.41)" fill="none" stroke="#007066" stroke-linecap="round" stroke-linejoin="round" stroke-width="2.5"/>
          <path id="Vector-8" data-name="Vector" d="M0,0H56V56H0Z" fill="none" opacity="0"/>
        </g>
      </g>
    </g>
  </g>
</svg>
