<svg xmlns="http://www.w3.org/2000/svg" width="80" height="80" viewBox="0 0 80 80">
  <g id="dashLogo02" transform="translate(-2205 323)">
    <circle id="Ellipse_11765" data-name="Ellipse 11765" cx="40" cy="40" r="40" transform="translate(2205 -323)" fill="#007066" opacity="0.1"/>
    <g id="note-favorite_twotone" data-name="note-favorite/twotone" transform="translate(2217 -311)">
      <g id="vuesax_twotone_note-favorite" data-name="vuesax/twotone/note-favorite">
        <g id="note-favorite">
          <path id="Vector" d="M0,0V7" transform="translate(18.667 4.667)" fill="none" stroke="#007066" stroke-linecap="round" stroke-linejoin="round" stroke-width="2.5"/>
          <path id="Vector-2" data-name="Vector" d="M0,0V7" transform="translate(37.333 4.667)" fill="none" stroke="#007066" stroke-linecap="round" stroke-linejoin="round" stroke-width="2.5"/>
          <path id="Vector-3" data-name="Vector" d="M42,11.667v11.97A12.226,12.226,0,0,0,23.94,39.55a12.286,12.286,0,0,0,3.313,3.617H11.667C3.5,43.167,0,38.5,0,31.5V11.667C0,4.667,3.5,0,11.667,0H30.333C38.5,0,42,4.667,42,11.667Z" transform="translate(7 8.167)" fill="none" stroke="#007066" stroke-linecap="round" stroke-linejoin="round" stroke-width="2.5"/>
          <path id="Vector-4" data-name="Vector" d="M0,0H14" transform="translate(16.333 25.667)" fill="none" stroke="#cca079" stroke-linecap="round" stroke-linejoin="round" stroke-width="2.5"/>
          <path id="Vector-5" data-name="Vector" d="M0,0H6.113" transform="translate(16.333 37.333)" fill="none" stroke="#cca079" stroke-linecap="round" stroke-linejoin="round" stroke-width="2.5"/>
          <path id="Vector-6" data-name="Vector" d="M24.5,12.25a12.076,12.076,0,0,1-1.773,6.3A10.828,10.828,0,0,1,20.3,21.443a12.144,12.144,0,0,1-15.213.723A12.286,12.286,0,0,1,1.773,18.55,12.158,12.158,0,0,1,4.6,2.707,12.241,12.241,0,0,1,24.5,12.25Z" transform="translate(29.167 29.167)" fill="none" stroke="#cca079" stroke-linecap="round" stroke-linejoin="round" stroke-width="2.5"/>
          <path id="Vector-7" data-name="Vector" d="M0,0H56V56H0Z" fill="none" opacity="0"/>
          <g id="Group_26521" data-name="Group 26521" transform="translate(0 0)">
            <path id="Vector-8" data-name="Vector" d="M6.953,0H0" transform="translate(37.94 41.335)" fill="none" stroke="#007066" stroke-linecap="round" stroke-linejoin="round" stroke-width="2.5"/>
            <path id="Vector-9" data-name="Vector" d="M0,0V6.977" transform="translate(41.417 37.928)" fill="none" stroke="#007066" stroke-linecap="round" stroke-linejoin="round" stroke-width="2.5"/>
          </g>
        </g>
      </g>
    </g>
  </g>
</svg>
