<svg xmlns="http://www.w3.org/2000/svg" width="80" height="80" viewBox="0 0 80 80">
  <g id="dashLogo05" transform="translate(-2205 323)">
    <circle id="Ellipse_11765" data-name="Ellipse 11765" cx="40" cy="40" r="40" transform="translate(2205 -323)" fill="#007066" opacity="0.1"/>
    <g id="note-2_linear" data-name="note-2/linear" transform="translate(2217 -311)">
      <g id="vuesax_linear_note-2" data-name="vuesax/linear/note-2">
        <g id="note-2">
          <path id="Vector" d="M30.506,33.343a21.868,21.868,0,0,1-5.483,2.52l-3.687,1.213c-9.263,2.987-14.14.49-17.15-8.773L1.2,19.087C-1.787,9.823.686,4.923,9.949,1.937L13.636.723A23.855,23.855,0,0,1,16.366,0a24.44,24.44,0,0,0-1.727,5.133L12.353,14.91c-2.287,9.753.723,14.56,10.453,16.87l3.92.933A24.531,24.531,0,0,0,30.506,33.343Z" transform="translate(4.634 11.9)" fill="none" stroke="#cca079" stroke-linecap="round" stroke-linejoin="round" stroke-width="2.5"/>
          <path id="Vector-2" data-name="Vector" d="M0,0H56V56H0Z" transform="translate(56 56) rotate(180)" fill="none" opacity="0"/>
          <path id="Vector-3" data-name="Vector" d="M34.28,18.523l-2.287,9.753c-1.96,8.423-5.833,11.83-13.113,11.13a24.532,24.532,0,0,1-3.78-.63l-3.92-.933C1.45,35.533-1.56,30.727.727,20.973L3.013,11.2A24.44,24.44,0,0,1,4.74,6.063C7.47.417,12.113-1.1,19.907.743l3.9.91C33.58,3.94,36.567,8.77,34.28,18.523Z" transform="translate(16.26 5.837)" fill="none" stroke="#007066" stroke-linecap="round" stroke-linejoin="round" stroke-width="2.5"/>
          <path id="Vector-4" data-name="Vector" d="M0,0,11.317,2.87" transform="translate(29.493 19.903)" fill="none" stroke="#007066" stroke-linecap="round" stroke-linejoin="round" stroke-width="2.5"/>
          <path id="Vector-5" data-name="Vector" d="M0,0,6.767,1.727" transform="translate(27.207 28.933)" fill="none" stroke="#007066" stroke-linecap="round" stroke-linejoin="round" stroke-width="2.5"/>
        </g>
      </g>
    </g>
  </g>
</svg>
