<svg xmlns="http://www.w3.org/2000/svg" width="80" height="80" viewBox="0 0 80 80">
  <g id="dashLogo08" transform="translate(-2205 323)">
    <circle id="Ellipse_11765" data-name="Ellipse 11765" cx="40" cy="40" r="40" transform="translate(2205 -323)" fill="#007066" opacity="0.1"/>
    <g id="convertshape_linear" data-name="convertshape/linear" transform="translate(2217 -311)">
      <g id="vuesax_linear_convertshape" data-name="vuesax/linear/convertshape">
        <g id="convertshape">
          <path id="Vector" d="M21,7.35v8.633c0,5.25-2.1,7.35-7.35,7.35H7.35c-5.25,0-7.35-2.1-7.35-7.35V7.35C0,2.1,2.1,0,7.35,0h6.3C18.9,0,21,2.1,21,7.35Z" transform="translate(30.333 4.667)" fill="none" stroke="#007066" stroke-linecap="round" stroke-linejoin="round" stroke-width="2.5"/>
          <path id="Vector-2" data-name="Vector" d="M21,7.35v8.633c0,5.25-2.1,7.35-7.35,7.35H7.35c-5.25,0-7.35-2.1-7.35-7.35V7.35C0,2.1,2.1,0,7.35,0h6.3C18.9,0,21,2.1,21,7.35Z" transform="translate(4.667 28)" fill="none" stroke="#007066" stroke-linecap="round" stroke-linejoin="round" stroke-width="2.5"/>
          <path id="Vector-3" data-name="Vector" d="M16.333,0A16.321,16.321,0,0,1,0,16.333L2.45,12.25" transform="translate(35 35)" fill="none" stroke="#cca079" stroke-linecap="round" stroke-linejoin="round" stroke-width="2.5"/>
          <path id="Vector-4" data-name="Vector" d="M0,16.333A16.321,16.321,0,0,1,16.333,0l-2.45,4.083" transform="translate(4.667 4.667)" fill="none" stroke="#cca079" stroke-linecap="round" stroke-linejoin="round" stroke-width="2.5"/>
          <path id="Vector-5" data-name="Vector" d="M0,0H56V56H0Z" fill="none" opacity="0"/>
        </g>
      </g>
    </g>
  </g>
</svg>
