<svg xmlns="http://www.w3.org/2000/svg" width="104" height="104" viewBox="0 0 104 104">
  <g id="depart3" transform="translate(-1336 -463)">
    <circle id="Ellipse_11764" data-name="Ellipse 11764" cx="52" cy="52" r="52" transform="translate(1336 463)" fill="#007066" opacity="0.1"/>
    <g id="eye_security-user_linear" data-name="eye/security-user/linear" transform="translate(1360 487)">
      <g id="vuesax_linear_security-user" data-name="vuesax/linear/security-user">
        <g id="security-user">
          <g id="Group" transform="translate(7.957 4.661)">
            <path id="Vector" d="M16.52.542,4.877,4.906A8.1,8.1,0,0,0,0,11.952V29.289a11.344,11.344,0,0,0,4.037,8.027l10.033,7.49a10.62,10.62,0,0,0,11.993,0L36.1,37.316a11.344,11.344,0,0,0,4.037-8.027V11.952a8.1,8.1,0,0,0-4.877-7.047L23.613.542A11.864,11.864,0,0,0,16.52.542Z" fill="none" stroke="#007066" stroke-linecap="round" stroke-linejoin="round" stroke-width="2.5"/>
          </g>
          <g id="Group-2" data-name="Group" transform="translate(21.677 17.267)">
            <path id="Vector-2" data-name="Vector" d="M4.247,8.213h-.3a4.118,4.118,0,1,1,.3,0Z" transform="translate(2.077)" fill="none" stroke="#cca079" stroke-linecap="round" stroke-linejoin="round" stroke-width="2.5"/>
            <path id="Vector-3" data-name="Vector" d="M1.68,1.278c-2.24,1.493-2.24,3.943,0,5.437a9.035,9.035,0,0,0,9.263,0c2.24-1.493,2.24-3.943,0-5.437A9.035,9.035,0,0,0,1.68,1.278Z" transform="translate(0 13.469)" fill="none" stroke="#cca079" stroke-linecap="round" stroke-linejoin="round" stroke-width="2.5"/>
          </g>
          <path id="Vector-4" data-name="Vector" d="M0,0H56V56H0Z" fill="none" opacity="0"/>
        </g>
      </g>
    </g>
  </g>
</svg>
