<svg id="editPasswordConfg" xmlns="http://www.w3.org/2000/svg" width="24" height="24" viewBox="0 0 24 24">
  <g id="vuesax_twotone_password-check" data-name="vuesax/twotone/password-check">
    <g id="password-check">
      <path id="Vector" d="M8.52,15H5a11.95,11.95,0,0,1-1.66-.09C.71,14.62,0,13.38,0,10V5C0,1.62.71.38,3.34.09A11.95,11.95,0,0,1,5,0H8.46" transform="translate(2.5 4.5)" fill="none" stroke="#007066" stroke-linecap="round" stroke-linejoin="round" stroke-width="1.5" opacity="0.4"/>
      <path id="Vector-2" data-name="Vector" d="M0,0H1.48A11.95,11.95,0,0,1,3.14.09C5.77.38,6.48,1.62,6.48,5v5c0,3.38-.71,4.62-3.34,4.91A11.95,11.95,0,0,1,1.48,15H0" transform="translate(15.02 4.5)" fill="none" stroke="#007066" stroke-linecap="round" stroke-linejoin="round" stroke-width="1.5"/>
      <path id="Vector-3" data-name="Vector" d="M0,0V20" transform="translate(15 2)" fill="none" stroke="#007066" stroke-linecap="round" stroke-linejoin="round" stroke-width="1.5"/>
      <path id="Vector-4" data-name="Vector" d="M.495.5H.5" transform="translate(10.6 11.5)" fill="none" stroke="#007066" stroke-linecap="round" stroke-linejoin="round" stroke-width="2" opacity="0.4"/>
      <path id="Vector-5" data-name="Vector" d="M.495.5H.5" transform="translate(6.6 11.5)" fill="none" stroke="#007066" stroke-linecap="round" stroke-linejoin="round" stroke-width="2" opacity="0.4"/>
      <path id="Vector-6" data-name="Vector" d="M0,0H24V24H0Z" transform="translate(24 24) rotate(180)" fill="none" opacity="0"/>
    </g>
  </g>
</svg>
