<svg xmlns="http://www.w3.org/2000/svg" width="132" height="132" viewBox="0 0 132 132">
  <g id="EditDataCloseIcon" transform="translate(-893 -516)">
    <circle id="Ellipse_11743" data-name="Ellipse 11743" cx="66" cy="66" r="66" transform="translate(893 516)" fill="#1d1d1b" opacity="0.1"/>
    <g id="close-circle-outline" transform="translate(959.5 582.5)">
      <g id="close-circle-outline-2" data-name="close-circle-outline" transform="translate(-49.5 -49.5)">
        <g id="close-circle">
          <rect id="Rectangle_16336" data-name="Rectangle 16336" width="99" height="99" fill="#012d29" opacity="0"/>
          <path id="Path_60009" data-name="Path 60009" d="M43.25,2A41.25,41.25,0,1,0,84.5,43.25,41.25,41.25,0,0,0,43.25,2Zm0,74.25a33,33,0,1,1,33-33A33,33,0,0,1,43.25,76.25Z" transform="translate(6.25 6.25)" fill="#012d29"/>
          <path id="Path_60010" data-name="Path 60010" d="M32.572,10.214a4.125,4.125,0,0,0-5.857,0l-5.321,5.362-5.321-5.362a4.142,4.142,0,0,0-5.857,5.858l5.362,5.321-5.362,5.321a4.142,4.142,0,1,0,5.857,5.857l5.321-5.362,5.321,5.362a4.142,4.142,0,1,0,5.857-5.857l-5.362-5.321,5.362-5.321a4.125,4.125,0,0,0,0-5.857Z" transform="translate(28.107 28.107)" fill="#012d29"/>
        </g>
      </g>
    </g>
  </g>
</svg>
