<svg id="employeeIcon" xmlns="http://www.w3.org/2000/svg" width="18" height="18" viewBox="0 0 18 18">
  <g id="vuesax_outline_user-edit" data-name="vuesax/outline/user-edit">
    <g id="user-edit">
      <path id="Vector" d="M4.313,8.625A4.313,4.313,0,1,1,8.625,4.313,4.318,4.318,0,0,1,4.313,8.625Zm0-7.5A3.188,3.188,0,1,0,7.5,4.313,3.194,3.194,0,0,0,4.313,1.125Z" transform="translate(4.688 0.938)" fill="#292d32"/>
      <path id="Vector-2" data-name="Vector" d="M1.048,6.247a1.054,1.054,0,0,1-.75-.3,1.067,1.067,0,0,1-.285-.922L.156,4.012a1.515,1.515,0,0,1,.383-.765L3.193.592a1.581,1.581,0,0,1,2.46,0,1.764,1.764,0,0,1,.592,1.23,1.719,1.719,0,0,1-.592,1.223L3,5.7a1.485,1.485,0,0,1-.765.383l-1.013.142A.681.681,0,0,1,1.048,6.247ZM4.416,1.125c-.135,0-.255.09-.428.263L1.333,4.042a.285.285,0,0,0-.06.127l-.135.938.938-.135A.417.417,0,0,0,2.2,4.9L4.858,2.25a.778.778,0,0,0,.262-.428.71.71,0,0,0-.262-.435C4.678,1.207,4.543,1.125,4.416,1.125Z" transform="translate(10.817 10.815)" fill="#292d32"/>
      <path id="Vector-3" data-name="Vector" d="M2.226,2.788a.484.484,0,0,1-.15-.022A2.983,2.983,0,0,1,.021.711.56.56,0,0,1,1.1.411,1.849,1.849,0,0,0,2.376,1.686a.562.562,0,0,1-.15,1.1Z" transform="translate(13.464 11.627)" fill="#292d32"/>
      <path id="Vector-4" data-name="Vector" d="M.563,6.375A.567.567,0,0,1,0,5.813C0,2.61,3.143,0,7.005,0A8.413,8.413,0,0,1,9.39.345a.56.56,0,1,1-.322,1.072,7.258,7.258,0,0,0-2.063-.3c-3.24,0-5.88,2.1-5.88,4.688A.568.568,0,0,1,.563,6.375Z" transform="translate(1.995 10.688)" fill="#292d32"/>
      <path id="Vector-5" data-name="Vector" d="M0,0H18V18H0Z" fill="none" opacity="0"/>
    </g>
  </g>
</svg>
