<svg id="eye-off-2" xmlns="http://www.w3.org/2000/svg" width="24" height="24" viewBox="0 0 24 24">
  <rect id="Rectangle_16173" data-name="Rectangle 16173" width="24" height="24" fill="#012d29" opacity="0"/>
  <path id="Path_59808" data-name="Path 59808" d="M17.81,13.39A9,9,0,0,0,21,7.62a1.007,1.007,0,0,0-2-.24h0a7.07,7.07,0,0,1-14,0,1.007,1.007,0,1,0-2,.24,8.94,8.94,0,0,0,3.18,5.77l-2.3,2.32a1,1,0,0,0,1.41,1.41l2.61-2.6a9.1,9.1,0,0,0,3.1.92V19a1,1,0,0,0,2,0V15.44a9.1,9.1,0,0,0,3.1-.92l2.61,2.6a1,1,0,0,0,1.41-1.41Z" fill="#012d29"/>
</svg>
