<svg xmlns="http://www.w3.org/2000/svg" width="18" height="18" viewBox="0 0 18 18">
  <g id="eye-outline" transform="translate(12)">
    <g id="eye-outline-2" data-name="eye-outline" transform="translate(-12)">
      <g id="eye">
        <rect id="Rectangle_16380" data-name="Rectangle 16380" width="18" height="18" fill="#007066" opacity="0"/>
        <path id="Path_60092" data-name="Path 60092" d="M16.9,9.874c-.48-.832-3.12-5.01-7.6-4.875C5.149,5.1,2.749,8.749,2.1,9.874a.75.75,0,0,0,0,.75c.472.818,3,4.875,7.418,4.875H9.7c4.148-.1,6.555-3.75,7.2-4.875A.75.75,0,0,0,16.9,9.874ZM9.664,14c-3.232.075-5.34-2.693-6-3.75.75-1.207,2.707-3.675,5.707-3.75,3.217-.082,5.333,2.692,6,3.75C14.6,11.456,12.664,13.924,9.664,14Z" transform="translate(-0.499 -1.249)" fill="#007066"/>
        <path id="Path_60093" data-name="Path 60093" d="M11.125,8.5a2.625,2.625,0,1,0,2.625,2.625A2.625,2.625,0,0,0,11.125,8.5Zm0,3.75a1.125,1.125,0,1,1,1.125-1.125A1.125,1.125,0,0,1,11.125,12.25Z" transform="translate(-2.125 -2.125)" fill="#007066"/>
      </g>
    </g>
  </g>
</svg>
