<svg xmlns="http://www.w3.org/2000/svg" width="24" height="24" viewBox="0 0 24 24">
  <g id="eyeIntable" transform="translate(12)">
    <g id="eye-outline" transform="translate(-12)">
      <g id="eye">
        <rect id="Rectangle_16380" data-name="Rectangle 16380" width="24" height="24" fill="#007066" opacity="0"/>
        <path id="Path_60092" data-name="Path 60092" d="M21.87,11.5c-.64-1.11-4.16-6.68-10.14-6.5C6.2,5.14,3,10,2.13,11.5a1,1,0,0,0,0,1c.63,1.09,4,6.5,9.89,6.5h.25c5.53-.14,8.74-5,9.6-6.5A1,1,0,0,0,21.87,11.5ZM12.22,17c-4.31.1-7.12-3.59-8-5,1-1.61,3.61-4.9,7.61-5,4.29-.11,7.11,3.59,8,5C18.8,13.61,16.22,16.9,12.22,17Z" transform="translate(0 0)" fill="#007066"/>
        <path id="Path_60093" data-name="Path 60093" d="M12,8.5A3.5,3.5,0,1,0,15.5,12,3.5,3.5,0,0,0,12,8.5Zm0,5A1.5,1.5,0,1,1,13.5,12,1.5,1.5,0,0,1,12,13.5Z" transform="translate(0 0)" fill="#007066"/>
      </g>
    </g>
  </g>
</svg>
