<svg xmlns="http://www.w3.org/2000/svg" width="18.893" height="18.894" viewBox="0 0 18.893 18.894">
  <g id="Lang" transform="translate(-471.26 -249.885)">
    <path id="Path_49151" data-name="Path 49151" d="M498.079,259.332c0,4.887-2.794,8.847-4.656,8.847s-4.656-3.959-4.656-8.847,2.794-8.847,4.656-8.847S498.079,254.445,498.079,259.332Z" transform="translate(-12.716 0)" fill="none" stroke="#cb9358" stroke-linecap="round" stroke-linejoin="round" stroke-width="1.2"/>
    <path id="Path_49152" data-name="Path 49152" d="M489.553,259.332a8.847,8.847,0,1,1-8.847-8.847A8.845,8.845,0,0,1,489.553,259.332Z" transform="translate(0 0)" fill="none" stroke="#cb9358" stroke-linecap="round" stroke-linejoin="round" stroke-width="1.2"/>
    <path id="Path_49153" data-name="Path 49153" d="M493.527,263.807a18.226,18.226,0,0,1-13.787,0" transform="translate(-5.927 -10.02)" fill="none" stroke="#cb9358" stroke-linecap="round" stroke-linejoin="round" stroke-width="1.2"/>
    <path id="Path_49154" data-name="Path 49154" d="M479.738,304.441a18.228,18.228,0,0,1,13.788,0" transform="translate(-5.925 -39.564)" fill="none" stroke="#cb9358" stroke-linecap="round" stroke-linejoin="round" stroke-width="1.2"/>
    <line id="Line_52" data-name="Line 52" x2="17.693" transform="translate(471.86 259.332)" fill="none" stroke="#cb9358" stroke-linecap="round" stroke-linejoin="round" stroke-width="1.2"/>
    <line id="Line_53" data-name="Line 53" y2="17.694" transform="translate(480.707 250.485)" fill="none" stroke="#cb9358" stroke-linecap="round" stroke-linejoin="round" stroke-width="1.2"/>
  </g>
</svg>
