<svg id="receipt-edit" xmlns="http://www.w3.org/2000/svg" width="18" height="18" viewBox="0 0 18 18">
  <g id="vuesax_outline_receipt-edit" data-name="vuesax/outline/receipt-edit">
    <g id="receipt-edit-2" data-name="receipt-edit">
      <path id="Vector" d="M5.828,15.518a.554.554,0,0,1-.45-.225L4.62,14.28a.81.81,0,0,0-.592-.345.8.8,0,0,0-.63.278c-1.088,1.162-1.912,1.065-2.31.915S0,14.452,0,12.787V4.343C0,1.013.96,0,4.1,0H9.765c3.142,0,4.1,1.013,4.1,4.343V7.537a.563.563,0,0,1-1.125,0V4.343c0-2.707-.473-3.218-2.978-3.218H4.1c-2.5,0-2.978.51-2.978,3.218v8.445c0,.787.195,1.223.375,1.29.135.052.5-.022,1.073-.63a1.941,1.941,0,0,1,1.515-.638,1.935,1.935,0,0,1,1.433.8l.765,1.012a.563.563,0,0,1-.112.788A.573.573,0,0,1,5.828,15.518Z" transform="translate(2.078 0.938)" fill="#fff"/>
      <path id="Vector-2" data-name="Vector" d="M6.563,1.125h-6A.567.567,0,0,1,0,.563.567.567,0,0,1,.563,0h6a.567.567,0,0,1,.563.563A.567.567,0,0,1,6.563,1.125Z" transform="translate(5.438 4.688)" fill="#fff"/>
      <path id="Vector-3" data-name="Vector" d="M5.063,1.125H.563A.567.567,0,0,1,0,.563.567.567,0,0,1,.563,0h4.5a.567.567,0,0,1,.563.563A.567.567,0,0,1,5.063,1.125Z" transform="translate(6.188 7.688)" fill="#fff"/>
      <path id="Vector-4" data-name="Vector" d="M1.048,6.246a1.054,1.054,0,0,1-.75-.3,1.067,1.067,0,0,1-.285-.923L.156,4.011a1.485,1.485,0,0,1,.383-.765L3.193.591a1.786,1.786,0,0,1,1.1-.585A1.7,1.7,0,0,1,5.653.591a1.689,1.689,0,0,1,.585,1.365,1.845,1.845,0,0,1-.585,1.095L3,5.706a1.486,1.486,0,0,1-.765.383l-1.013.143A1.339,1.339,0,0,1,1.048,6.246ZM4.416,1.124H4.393a.787.787,0,0,0-.405.262L1.333,4.041a.285.285,0,0,0-.06.128l-.135.938.938-.135A.417.417,0,0,0,2.2,4.9L4.858,2.249a.817.817,0,0,0,.263-.405c.015-.15-.135-.33-.263-.458A.765.765,0,0,0,4.416,1.124Z" transform="translate(10.067 10.089)" fill="#fff"/>
      <path id="Vector-5" data-name="Vector" d="M2.226,2.8a.484.484,0,0,1-.15-.022A2.983,2.983,0,0,1,.021.718a.57.57,0,0,1,.39-.7.558.558,0,0,1,.69.39A1.849,1.849,0,0,0,2.376,1.686a.566.566,0,0,1,.39.7A.56.56,0,0,1,2.226,2.8Z" transform="translate(12.714 10.892)" fill="#fff"/>
      <path id="Vector-6" data-name="Vector" d="M0,0H18V18H0Z" fill="none" opacity="0"/>
    </g>
  </g>
</svg>
