<svg xmlns="http://www.w3.org/2000/svg" width="18" height="18" viewBox="0 0 18 18">
  <g id="replyIcon" transform="translate(12)">
    <g id="message-square-outline" transform="translate(-12)">
      <g id="message-square">
        <rect id="Rectangle_16382" data-name="Rectangle 16382" width="18" height="18" fill="#fff" opacity="0"/>
        <circle id="Ellipse_11757" data-name="Ellipse 11757" cx="0.75" cy="0.75" r="0.75" transform="translate(8.25 7.5)" fill="#fff"/>
        <circle id="Ellipse_11758" data-name="Ellipse 11758" cx="0.75" cy="0.75" r="0.75" transform="translate(11.25 7.5)" fill="#fff"/>
        <circle id="Ellipse_11759" data-name="Ellipse 11759" cx="0.75" cy="0.75" r="0.75" transform="translate(5.25 7.5)" fill="#fff"/>
        <path id="Path_60096" data-name="Path 60096" d="M14.75,3H4.25A2.25,2.25,0,0,0,2,5.25V16.5a.75.75,0,0,0,1.132.645L6.5,15.1a.75.75,0,0,1,.413-.1H14.75A2.25,2.25,0,0,0,17,12.75V5.25A2.25,2.25,0,0,0,14.75,3Zm.75,9.75a.75.75,0,0,1-.75.75H6.913a2.25,2.25,0,0,0-1.163.323L3.5,15.172V5.25a.75.75,0,0,1,.75-.75h10.5a.75.75,0,0,1,.75.75Z" transform="translate(-0.5 -0.75)" fill="#fff"/>
      </g>
    </g>
  </g>
</svg>
