<svg xmlns="http://www.w3.org/2000/svg" width="18.4" height="18.4" viewBox="0 0 18.4 18.4">
  <g id="right-circle" transform="translate(0.2 0.2)">
    <g id="tick-circle">
      <g id="Vector" transform="translate(0.938 0.938)" fill="#fff" stroke-linecap="round">
        <path d="M 8.0625 16.22500038146973 C 3.56168007850647 16.22500038146973 -0.1000000014901161 12.56332015991211 -0.1000000014901161 8.0625 C -0.1000000014901161 3.56168007850647 3.56168007850647 -0.1000000014901161 8.0625 -0.1000000014901161 C 12.56332015991211 -0.1000000014901161 16.22500038146973 3.56168007850647 16.22500038146973 8.0625 C 16.22500038146973 12.56332015991211 12.56332015991211 16.22500038146973 8.0625 16.22500038146973 Z M 8.0625 1.225000023841858 C 4.292290210723877 1.225000023841858 1.225000023841858 4.292290210723877 1.225000023841858 8.0625 C 1.225000023841858 11.83271026611328 4.292290210723877 14.89999961853027 8.0625 14.89999961853027 C 11.83271026611328 14.89999961853027 14.89999961853027 11.83271026611328 14.89999961853027 8.0625 C 14.89999961853027 4.292290210723877 11.83271026611328 1.225000023841858 8.0625 1.225000023841858 Z" stroke="none"/>
        <path d="M 8.0625 16.125 C 12.51000022888184 16.125 16.125 12.51000022888184 16.125 8.0625 C 16.125 3.615000009536743 12.51000022888184 0 8.0625 0 C 3.615000009536743 0 0 3.615000009536743 0 8.0625 C 0 12.51000022888184 3.615000009536743 16.125 8.0625 16.125 M 8.0625 1.125 C 11.88749980926514 1.125 15 4.237500190734863 15 8.0625 C 15 11.88749980926514 11.88749980926514 15 8.0625 15 C 4.237500190734863 15 1.125 11.88749980926514 1.125 8.0625 C 1.125 4.237500190734863 4.237500190734863 1.125 8.0625 1.125 M 8.0625 16.32500076293945 C 3.506540060043335 16.32500076293945 -0.2000000029802322 12.61845970153809 -0.2000000029802322 8.0625 C -0.2000000029802322 3.506540060043335 3.506540060043335 -0.2000000029802322 8.0625 -0.2000000029802322 C 12.61845970153809 -0.2000000029802322 16.32500076293945 3.506540060043335 16.32500076293945 8.0625 C 16.32500076293945 12.61845970153809 12.61845970153809 16.32500076293945 8.0625 16.32500076293945 Z M 8.0625 1.325000047683716 C 4.347430229187012 1.325000047683716 1.325000047683716 4.347430229187012 1.325000047683716 8.0625 C 1.325000047683716 11.77756977081299 4.347430229187012 14.80000019073486 8.0625 14.80000019073486 C 11.77756977081299 14.80000019073486 14.80000019073486 11.77756977081299 14.80000019073486 8.0625 C 14.80000019073486 4.347430229187012 11.77756977081299 1.325000047683716 8.0625 1.325000047683716 Z" stroke="none" fill="#fff"/>
      </g>
      <g id="Vector-2" data-name="Vector" transform="translate(5.252 6.309)" fill="#fff" stroke-linecap="round">
        <path d="M 2.683125257492065 5.475625038146973 C 2.506485223770142 5.475625038146973 2.340205430984497 5.406624794006348 2.21491527557373 5.28133487701416 L 0.09241531789302826 3.158834934234619 C -0.03166468441486359 3.034754991531372 -0.09999468177556992 2.868474960327148 -0.09999468177556992 2.690624952316284 C -0.09999468177556992 2.51277494430542 -0.03166468441486359 2.346494913101196 0.09241531789302826 2.222414970397949 C 0.2164953202009201 2.098335027694702 0.3827753067016602 2.030004978179932 0.5606253147125244 2.030004978179932 C 0.7384753227233887 2.030004978179932 0.9047552943229675 2.098335027694702 1.028835296630859 2.222414970397949 L 2.683125257492065 3.876704931259155 L 6.467415332794189 0.0924149826169014 C 6.591495513916016 -0.03166501969099045 6.75777530670166 -0.09999501705169678 6.935625076293945 -0.09999501705169678 C 7.113475322723389 -0.09999501705169678 7.279755115509033 -0.03166501969099045 7.403835296630859 0.0924149826169014 C 7.662005424499512 0.3505849838256836 7.662005424499512 0.7706649899482727 7.403835296630859 1.028834939002991 L 3.1513352394104 5.28133487701416 C 3.026045322418213 5.406624794006348 2.859765291213989 5.475625038146973 2.683125257492065 5.475625038146973 Z" stroke="none"/>
        <path d="M 2.683125257492065 5.375625133514404 C 2.833125352859497 5.375625133514404 2.975625276565552 5.315625190734863 3.080625295639038 5.210625171661377 L 7.333125114440918 0.9581249952316284 C 7.550625324249268 0.7406249642372131 7.550625324249268 0.3806249797344208 7.333125114440918 0.1631249785423279 C 7.115625858306885 -0.05437465757131577 6.75562572479248 -0.05437537282705307 6.538125514984131 0.1631249785423279 L 2.683125257492065 4.018125057220459 L 0.9581252932548523 2.293124914169312 C 0.7406253814697266 2.075625419616699 0.3806253373622894 2.075625419616699 0.1631253212690353 2.293124914169312 C -0.05437468364834785 2.510624885559082 -0.05437468364834785 2.870625019073486 0.1631253212690353 3.088124990463257 L 2.285625219345093 5.210625171661377 C 2.390625238418579 5.315625190734863 2.533125400543213 5.375625133514404 2.683125257492065 5.375625133514404 M 2.683125257492065 5.575624942779541 C 2.479775428771973 5.575624942779541 2.288385391235352 5.496224880218506 2.144205331802368 5.352045059204102 L 0.02170531451702118 3.229544878005981 C -0.1212646886706352 3.086575031280518 -0.199994683265686 2.895184993743896 -0.199994683265686 2.690624952316284 C -0.199994683265686 2.486064910888672 -0.1212646886706352 2.294674873352051 0.02170531451702118 2.151705026626587 C 0.1646653115749359 2.008734941482544 0.3560653030872345 1.930004954338074 0.5606253147125244 1.930004954338074 C 0.7651852965354919 1.930004954338074 0.9565852880477905 2.008734941482544 1.099545359611511 2.151705026626587 L 2.683125257492065 3.735285043716431 L 6.396705150604248 0.02170498110353947 C 6.539665222167969 -0.1212650164961815 6.731065273284912 -0.1999950259923935 6.935625076293945 -0.1999950259923935 C 7.140185356140137 -0.1999950259923935 7.33158540725708 -0.1212650164961815 7.474545478820801 0.02170498110353947 C 7.771705150604248 0.3188649713993073 7.771705150604248 0.8023849725723267 7.474545478820801 1.099545001983643 L 3.222045421600342 5.352045059204102 C 3.077865362167358 5.496224880218506 2.886475324630737 5.575624942779541 2.683125257492065 5.575624942779541 Z" stroke="none" fill="#fff"/>
      </g>
      <g id="Vector-3" data-name="Vector" fill="none" stroke-linecap="round" opacity="0">
        <path d="M0,0H18V18H0Z" stroke="none"/>
        <path d="M 0 0 L 0 18 L 18 18 L 18 0 L 0 0 M -0.2000007629394531 -0.2000007629394531 L 18.20000076293945 -0.2000007629394531 L 18.20000076293945 18.20000076293945 L -0.2000007629394531 18.20000076293945 L -0.2000007629394531 -0.2000007629394531 Z" stroke="none" fill="#fff"/>
      </g>
    </g>
  </g>
</svg>
