<svg xmlns="http://www.w3.org/2000/svg" width="24.4" height="24.4" viewBox="0 0 24.4 24.4">
  <g id="right-circle-gren" transform="translate(0.2 0.2)">
    <g id="Vector" transform="translate(1.25 1.25)" fill="#007066" stroke-linecap="round">
      <path d="M 10.75 21.60000038146973 C 4.767290115356445 21.60000038146973 -0.1000000014901161 16.73270988464355 -0.1000000014901161 10.75 C -0.1000000014901161 4.767290115356445 4.767290115356445 -0.1000000014901161 10.75 -0.1000000014901161 C 16.73270988464355 -0.1000000014901161 21.60000038146973 4.767290115356445 21.60000038146973 10.75 C 21.60000038146973 16.73270988464355 16.73270988464355 21.60000038146973 10.75 21.60000038146973 Z M 10.75 1.600000023841858 C 5.704669952392578 1.600000023841858 1.600000023841858 5.704669952392578 1.600000023841858 10.75 C 1.600000023841858 15.79533004760742 5.704669952392578 19.89999961853027 10.75 19.89999961853027 C 15.79533004760742 19.89999961853027 19.89999961853027 15.79533004760742 19.89999961853027 10.75 C 19.89999961853027 5.704669952392578 15.79533004760742 1.600000023841858 10.75 1.600000023841858 Z" stroke="none"/>
      <path d="M 10.75 21.5 C 16.68000030517578 21.5 21.5 16.68000030517578 21.5 10.75 C 21.5 4.820000171661377 16.68000030517578 0 10.75 0 C 4.820000171661377 0 0 4.820000171661377 0 10.75 C 0 16.68000030517578 4.820000171661377 21.5 10.75 21.5 M 10.75 1.5 C 15.85000038146973 1.5 20 5.650000095367432 20 10.75 C 20 15.85000038146973 15.85000038146973 20 10.75 20 C 5.650000095367432 20 1.5 15.85000038146973 1.5 10.75 C 1.5 5.650000095367432 5.650000095367432 1.5 10.75 1.5 M 10.75 21.70000076293945 C 4.712150096893311 21.70000076293945 -0.2000000029802322 16.78784942626953 -0.2000000029802322 10.75 C -0.2000000029802322 4.712150096893311 4.712150096893311 -0.2000000029802322 10.75 -0.2000000029802322 C 16.78784942626953 -0.2000000029802322 21.70000076293945 4.712150096893311 21.70000076293945 10.75 C 21.70000076293945 16.78784942626953 16.78784942626953 21.70000076293945 10.75 21.70000076293945 Z M 10.75 1.700000047683716 C 5.759809970855713 1.700000047683716 1.700000047683716 5.759809970855713 1.700000047683716 10.75 C 1.700000047683716 15.74018955230713 5.759809970855713 19.79999923706055 10.75 19.79999923706055 C 15.74018955230713 19.79999923706055 19.79999923706055 15.74018955230713 19.79999923706055 10.75 C 19.79999923706055 5.759809970855713 15.74018955230713 1.700000047683716 10.75 1.700000047683716 Z" stroke="none" fill="#007066"/>
    </g>
    <g id="Vector-2" data-name="Vector" transform="translate(7.002 8.413)" fill="#007066" stroke-linecap="round">
      <path d="M 3.577500343322754 7.267499923706055 C 3.35088038444519 7.267499923706055 3.137550354003906 7.178970336914062 2.976790428161621 7.018209934234619 L 0.1467904150485992 4.188210010528564 C -0.1844395846128464 3.856980085372925 -0.1844395846128464 3.318020105361938 0.1467904150485992 2.986790180206299 C 0.3059304058551788 2.827640056610107 0.5192704200744629 2.740000247955322 0.7475004196166992 2.740000247955322 C 0.9757304191589355 2.740000247955322 1.189070463180542 2.827640056610107 1.348210453987122 2.986790180206299 L 3.577500343322754 5.216080188751221 L 8.646790504455566 0.1467901319265366 C 8.805930137634277 -0.01235986687242985 9.019269943237305 -0.09999986737966537 9.247500419616699 -0.09999986737966537 C 9.475730895996094 -0.09999986737966537 9.689070701599121 -0.01235986687242985 9.848210334777832 0.1467901319265366 C 10.17944049835205 0.4780201315879822 10.17944049835205 1.016980171203613 9.848210334777832 1.348210096359253 L 4.178210258483887 7.018209934234619 C 4.017450332641602 7.178970336914062 3.804120302200317 7.267499923706055 3.577500343322754 7.267499923706055 Z" stroke="none"/>
      <path d="M 3.577500343322754 7.167500019073486 C 3.77750039100647 7.167500019073486 3.967500448226929 7.087500095367432 4.107500553131104 6.947500228881836 L 9.777500152587891 1.277500152587891 C 10.06750011444092 0.9875001311302185 10.06750011444092 0.5075001120567322 9.777500152587891 0.2175001353025436 C 9.48750114440918 -0.07249987125396729 9.007499694824219 -0.07249987125396729 8.717500686645508 0.2175001353025436 L 3.577500343322754 5.357500076293945 L 1.27750039100647 3.057500123977661 C 0.9875004291534424 2.767500162124634 0.5075004100799561 2.767500162124634 0.2175004184246063 3.057500123977661 C -0.07249958068132401 3.347500085830688 -0.07249958068132401 3.827500104904175 0.2175004184246063 4.117500305175781 L 3.047500371932983 6.947500228881836 C 3.187500476837158 7.087500095367432 3.377500534057617 7.167500019073486 3.577500343322754 7.167500019073486 M 3.577500343322754 7.367500305175781 C 3.324170351028442 7.367500305175781 3.085720300674438 7.268569946289062 2.906080484390259 7.088920116424561 L 0.07608041912317276 4.258920192718506 C -0.2941395938396454 3.888700246810913 -0.2941395938396454 3.286300182342529 0.07608041912317276 2.916080236434937 C 0.2541104257106781 2.738050222396851 0.4925604164600372 2.640000104904175 0.7475004196166992 2.640000104904175 C 1.002440452575684 2.640000104904175 1.240890383720398 2.738050222396851 1.418920397758484 2.916080236434937 L 3.577500343322754 5.074660301208496 L 8.576080322265625 0.07608013600111008 C 8.754110336303711 -0.1019498631358147 8.992560386657715 -0.1999998688697815 9.247500419616699 -0.1999998688697815 C 9.502440452575684 -0.1999998688697815 9.740890502929688 -0.1019498631358147 9.918920516967773 0.07608013600111008 C 10.28914070129395 0.4463001191616058 10.28914070129395 1.048700094223022 9.918920516967773 1.418920159339905 L 4.248920440673828 7.088920116424561 C 4.069280624389648 7.268569946289062 3.830830335617065 7.367500305175781 3.577500343322754 7.367500305175781 Z" stroke="none" fill="#007066"/>
    </g>
    <g id="Vector-3" data-name="Vector" fill="none" stroke-linecap="round" opacity="0">
      <path d="M0,0H24V24H0Z" stroke="none"/>
      <path d="M 0 0 L 0 24 L 24 24 L 24 0 L 0 0 M -0.2000007629394531 -0.2000007629394531 L 24.20000076293945 -0.2000007629394531 L 24.20000076293945 24.20000076293945 L -0.2000007629394531 24.20000076293945 L -0.2000007629394531 -0.2000007629394531 Z" stroke="none" fill="#007066"/>
    </g>
  </g>
</svg>
