<svg id="search-normal_outline" data-name="search-normal/outline" xmlns="http://www.w3.org/2000/svg" width="18" height="18" viewBox="0 0 18 18">
  <g id="vuesax_outline_search-normal" data-name="vuesax/outline/search-normal">
    <g id="search-normal">
      <path id="Vector" d="M7.688,15.375A7.688,7.688,0,1,0,0,7.688,7.7,7.7,0,0,0,7.688,15.375Zm0-14.25A6.563,6.563,0,1,1,1.125,7.688,6.57,6.57,0,0,1,7.688,1.125Z" transform="translate(1.688 0.938)" fill="#bbb"/>
      <path id="Vector-2" data-name="Vector" d="M.561,2.623a.556.556,0,0,0,.4-.165l1.5-1.5a.562.562,0,1,0-.8-.8l-1.5,1.5a.566.566,0,0,0,0,.8A.556.556,0,0,0,.561,2.623Z" transform="translate(0.939 14.439)" fill="#bbb"/>
      <path id="Vector-3" data-name="Vector" d="M18,0H0V18H18Z" fill="none" opacity="0"/>
    </g>
  </g>
</svg>
