<svg xmlns="http://www.w3.org/2000/svg" width="24.4" height="24.4" viewBox="0 0 24.4 24.4">
  <g id="send-2" transform="translate(0.2 0.2)">
    <g id="vuesax_outline_send-2" data-name="vuesax/outline/send-2">
      <g id="send-2-2" data-name="send-2">
        <g id="Vector" transform="translate(2.38 2.356)" fill="#cca079">
          <path d="M 11.83999919891357 19.37386894226074 C 10.63282871246338 19.37386894226074 8.912999153137207 18.52923965454102 7.575109004974365 14.50541973114014 L 6.870941162109375 12.3929271697998 L 4.758378982543945 11.68873977661133 C 0.742878794670105 10.35023975372314 -0.100001223385334 8.63068962097168 -0.100001223385334 7.423869609832764 C -0.100001223385334 6.218079566955566 0.7428487539291382 4.497649669647217 4.758158683776855 3.149069786071777 L 13.24837875366211 0.3189996778964996 C 14.07849884033203 0.04098966717720032 14.86339855194092 -0.1000003293156624 15.58112907409668 -0.1000003293156624 C 16.70436859130859 -0.1000003293156624 17.65503883361816 0.2536896765232086 18.33037948608398 0.9228296875953674 C 19.45209884643555 2.034259557723999 19.67031860351562 3.839369773864746 18.9448184967041 6.005629539489746 L 16.1148681640625 14.49549007415771 C 14.76747894287109 18.52752876281738 13.04647922515869 19.37386894226074 11.83999919891357 19.37386894226074 Z M 15.56692886352539 1.60159969329834 C 15.03349876403809 1.60159969329834 14.43283843994141 1.711669683456421 13.78161907196045 1.928739666938782 L 5.29171895980835 4.768699645996094 C 2.559468746185303 5.682729721069336 1.589998722076416 6.770279884338379 1.589998722076416 7.423869609832764 C 1.589998722076416 8.07898998260498 2.559388875961304 9.164809226989746 5.291418552398682 10.06892967224121 L 7.811618804931641 10.9089994430542 C 8.060648918151855 10.98822975158691 8.26563835144043 11.1932201385498 8.34528923034668 11.44355010986328 L 9.184868812561035 13.96224975585938 C 10.0890588760376 16.69447898864746 11.18026924133301 17.66386985778809 11.83999919891357 17.66386985778809 C 12.4935884475708 17.66386985778809 13.58113861083984 16.69439888000488 14.49516868591309 13.96214008331299 L 17.32512855529785 5.472249507904053 C 17.82183837890625 3.97236967086792 17.74683952331543 2.752129554748535 17.11928939819336 2.124579668045044 C 16.77714920043945 1.782439708709717 16.24035835266113 1.60159969329834 15.56692886352539 1.60159969329834 Z" stroke="none"/>
          <path d="M 11.83999919891357 19.27387046813965 C 13.01999855041504 19.27387046813965 14.68999862670898 18.44387054443359 16.01999855041504 14.46387004852295 L 18.84999847412109 5.973869800567627 C 19.55999946594238 3.853869676589966 19.34999847412109 2.073869705200195 18.2599983215332 0.9938696622848511 C 17.17000007629395 -0.08613106608390808 15.39999675750732 -0.296129584312439 13.27999877929688 0.4138696789741516 L 4.789999008178711 3.243869781494141 C 0.829998791217804 4.573869705200195 -1.220703097715159e-06 6.253869533538818 -1.220703097715159e-06 7.423869609832764 C -1.220703097715159e-06 8.603869438171387 0.829998791217804 10.27386951446533 4.789999008178711 11.59386920928955 L 6.94999885559082 12.31386947631836 L 7.669998645782471 14.47386932373047 C 8.989998817443848 18.44387054443359 10.65999889373779 19.27387046813965 11.83999919891357 19.27387046813965 M 15.56692886352539 1.501601338386536 C 16.26158714294434 1.501601338386536 16.82302474975586 1.686895847320557 17.18999862670898 2.053869724273682 C 17.83999824523926 2.703869581222534 17.92999839782715 3.963869571685791 17.41999816894531 5.503869533538818 L 14.58999919891357 13.99386978149414 C 13.65999889373779 16.77387046813965 12.55999851226807 17.76387023925781 11.83999919891357 17.76387023925781 C 11.11999893188477 17.76387023925781 10.0099983215332 16.77387046813965 9.089999198913574 13.99386978149414 L 8.249999046325684 11.47386932373047 C 8.179998397827148 11.25387001037598 7.999998569488525 11.0738697052002 7.779998779296875 11.00387001037598 L 5.259998798370361 10.16386985778809 C 2.479998826980591 9.243869781494141 1.489998817443848 8.143869400024414 1.489998817443848 7.423869609832764 C 1.489998817443848 6.703869819641113 2.479998826980591 5.603869438171387 5.259998798370361 4.673869609832764 L 13.74999904632568 1.833869695663452 C 14.41619873046875 1.61180305480957 15.03117847442627 1.501601338386536 15.56692886352539 1.501601338386536 M 11.83999919891357 19.47386932373047 C 10.599928855896 19.47386932373047 8.836918830871582 18.61735916137695 7.480218887329102 14.5369701385498 L 6.791881561279297 12.4719877243042 L 4.726748943328857 11.78360939025879 C 0.654748797416687 10.42626953125 -0.2000012248754501 8.663569450378418 -0.2000012248754501 7.423869609832764 C -0.2000012248754501 6.185279846191406 0.6546688079833984 4.421779632568359 4.726318836212158 3.054279565811157 L 13.21674919128418 0.2241296619176865 C 14.05698871612549 -0.05727033317089081 14.85256862640381 -0.2000003308057785 15.58112907409668 -0.2000003308057785 C 16.73128890991211 -0.2000003308057785 17.706298828125 0.1637096703052521 18.4007682800293 0.8517996668815613 C 19.55098915100098 1.991469621658325 19.77787971496582 3.83307957649231 19.03964805603027 6.037379741668701 L 16.20973968505859 14.52711963653564 C 14.8434591293335 18.61567878723145 13.0793285369873 19.47386932373047 11.83999919891357 19.47386932373047 Z M 15.56692886352539 1.701599717140198 C 15.0442590713501 1.701599717140198 14.45423889160156 1.809939622879028 13.81324863433838 2.023609638214111 L 5.323448657989502 4.863539695739746 C 2.641588687896729 5.760709762573242 1.689998745918274 6.803489685058594 1.689998745918274 7.423869609832764 C 1.689998745918274 8.045660018920898 2.641428709030151 9.08661937713623 5.32283878326416 9.973999977111816 L 7.843248844146729 10.81412982940674 C 8.121378898620605 10.90260982513428 8.351259231567383 11.13248920440674 8.44058895111084 11.41322994232178 L 9.279738426208496 13.93061923980713 C 10.16724872589111 16.61244010925293 11.21359920501709 17.56386947631836 11.83999919891357 17.56386947631836 C 12.46037864685059 17.56386947631836 13.50315856933594 16.61227989196777 14.40032863616943 13.930419921875 L 17.23025894165039 5.440619468688965 C 17.70746803283691 3.9996497631073 17.63958930969238 2.786309719085693 17.0485782623291 2.195289611816406 C 16.72559928894043 1.87231969833374 16.21325874328613 1.701599717140198 15.56692886352539 1.701599717140198 Z" stroke="none" fill="#cca079"/>
        </g>
        <g id="Vector-2" data-name="Vector" transform="translate(9.363 9.313)" fill="#cca079">
          <path d="M 0.7474998831748962 5.187499523162842 C 0.5208799242973328 5.187499523162842 0.3075498938560486 5.098969459533691 0.1467899084091187 4.938209533691406 C -0.184440091252327 4.606979846954346 -0.184440091252327 4.068019866943359 0.1467899084091187 3.736789703369141 L 3.72668981552124 0.1468897014856339 C 3.885929822921753 -0.01236030552536249 4.099269866943359 -0.1000003069639206 4.327499866485596 -0.1000003069639206 C 4.555729866027832 -0.1000003069639206 4.769069671630859 -0.01236030552536249 4.928209781646729 0.1467896997928619 C 5.259439945220947 0.4780196845531464 5.259439945220947 1.016979694366455 4.928209781646729 1.348209738731384 L 1.348309874534607 4.938109874725342 C 1.201269865036011 5.095729827880859 0.9814499020576477 5.187499523162842 0.7474998831748962 5.187499523162842 Z" stroke="none"/>
          <path d="M 0.7474998831748962 5.087499618530273 C 0.9374998807907104 5.087499618530273 1.137499928474426 5.017499923706055 1.277499914169312 4.867499828338623 L 4.857500076293945 1.277499675750732 C 5.147500038146973 0.9874997138977051 5.147500038146973 0.5074996948242188 4.857500076293945 0.2174996882677078 C 4.567500114440918 -0.07250030338764191 4.087499618530273 -0.07250030338764191 3.797499895095825 0.2174996882677078 L 0.2174999117851257 3.807499647140503 C -0.07250009477138519 4.097499847412109 -0.07250009477138519 4.577499866485596 0.2174999117851257 4.867499828338623 C 0.3674999177455902 5.017499923706055 0.557499885559082 5.087499618530273 0.7474998831748962 5.087499618530273 M 0.7474998831748962 5.287499904632568 C 0.4941698908805847 5.287499904632568 0.2557199001312256 5.18856954574585 0.07607990503311157 5.008919715881348 C -0.294140100479126 4.638699531555176 -0.294140100479126 4.036299705505371 0.07607990503311157 3.666079759597778 L 3.655879974365234 0.07627969235181808 C 3.834110021591187 -0.1019503027200699 4.072559833526611 -0.2000003010034561 4.327499866485596 -0.2000003010034561 C 4.58243989944458 -0.2000003010034561 4.820889949798584 -0.1019503027200699 4.99891996383667 0.07607969641685486 C 5.369139671325684 0.4462997019290924 5.369139671325684 1.048699736595154 4.99891996383667 1.418919682502747 L 1.421229481697083 5.006604194641113 C 1.253111362457275 5.185166835784912 1.007782697677612 5.287499904632568 0.7474998831748962 5.287499904632568 Z" stroke="none" fill="#cca079"/>
        </g>
        <g id="Vector-3" data-name="Vector" fill="none" opacity="0">
          <path d="M0,0H24V24H0Z" stroke="none"/>
          <path d="M 0 0 L 0 24 L 24 24 L 24 0 L 0 0 M -0.2000007629394531 -0.2000007629394531 L 24.20000076293945 -0.2000007629394531 L 24.20000076293945 24.20000076293945 L -0.2000007629394531 24.20000076293945 L -0.2000007629394531 -0.2000007629394531 Z" stroke="none" fill="#cca079"/>
        </g>
      </g>
    </g>
  </g>
</svg>
