<svg id="statusEmp" xmlns="http://www.w3.org/2000/svg" width="18" height="18" viewBox="0 0 18 18">
  <g id="vuesax_outline_clipboard" data-name="vuesax/outline/clipboard">
    <g id="clipboard">
      <path id="Vector" d="M8.867,13.625a8.132,8.132,0,0,1-1.3-.112l-3.517-.555a6.082,6.082,0,0,1-2.6-.93C-.193,10.887-.1,8.93.115,7.557L.67,4.04C1.18.815,2.845-.393,6.07.11L9.587.665c1.658.262,3.885.93,4.027,3.728a7.5,7.5,0,0,1-.1,1.673l-.547,3.517C12.527,12.335,11.245,13.625,8.867,13.625Zm-4.14-12.5c-1.785,0-2.6.908-2.948,3.1L1.225,7.737c-.345,2.213.285,2.963.87,3.375a4.935,4.935,0,0,0,2.13.735l3.518.555c2.618.413,3.7-.375,4.11-3L12.4,5.885a6.246,6.246,0,0,0,.09-1.433V4.445C12.407,2.87,11.515,2.1,9.407,1.767L5.9,1.22A7.593,7.593,0,0,0,4.727,1.122Z" transform="translate(0.92 0.94)" fill="#292d32"/>
      <path id="Vector-2" data-name="Vector" d="M8.872,12.263a7,7,0,0,1-2.19-.413L3.3,10.725C1.372,10.088.33,9.173.015,7.838a.558.558,0,0,1,.233-.593.565.565,0,0,1,.638.007,4.9,4.9,0,0,0,2.123.735l3.517.555c2.617.413,3.7-.375,4.11-3l.547-3.517a6.246,6.246,0,0,0,.09-1.433.579.579,0,0,1,.263-.5A.556.556,0,0,1,12.1.068c2.01,1.073,2.542,2.79,1.672,5.415L12.652,8.865a4.825,4.825,0,0,1-2.2,3.053A3.494,3.494,0,0,1,8.872,12.263ZM2.16,8.97a6.237,6.237,0,0,0,1.492.69l3.383,1.125a3.857,3.857,0,0,0,2.9.127,3.806,3.806,0,0,0,1.643-2.4L12.7,5.13c.615-1.86.375-2.85-.338-3.517-.015.188-.045.383-.075.592l-.547,3.517c-.51,3.225-2.175,4.433-5.4,3.938L2.827,9.105C2.595,9.06,2.37,9.015,2.16,8.97Z" transform="translate(2.138 4.8)" fill="#292d32"/>
      <path id="Vector-3" data-name="Vector" d="M1.867,3.735A1.868,1.868,0,1,1,3.735,1.868,1.873,1.873,0,0,1,1.867,3.735Zm0-2.6a.742.742,0,1,0,.742.742A.744.744,0,0,0,1.867,1.133Z" transform="translate(4.313 3.555)" fill="#292d32"/>
      <path id="Vector-4" data-name="Vector" d="M0,0H18V18H0Z" fill="none" opacity="0"/>
    </g>
  </g>
</svg>
