<svg xmlns="http://www.w3.org/2000/svg" width="30.3" height="30.3" viewBox="0 0 30.3 30.3">
  <g id="step4" transform="translate(0.15 0.15)">
    <g id="vuesax_outline_note-2" data-name="vuesax/outline/note-2">
      <g id="note-2">
        <path id="Vector" d="M11.992,23.036a9.851,9.851,0,0,1-1.025-.05,13.551,13.551,0,0,1-2.15-.362l-2.1-.5C.954,20.761-.933,17.711.417,11.961L1.642,6.723a13.285,13.285,0,0,1,1-2.95C4.792-.664,8.9-.264,11.829.423l2.087.488c2.925.688,4.775,1.775,5.812,3.438s1.188,3.8.5,6.725L19,16.3C17.929,20.873,15.692,23.036,11.992,23.036ZM8.629,1.873a4.321,4.321,0,0,0-4.3,2.713,12.706,12.706,0,0,0-.863,2.562L2.242,12.386c-1.112,4.725.175,6.787,4.9,7.912l2.1.5a12.881,12.881,0,0,0,1.887.313c3.4.338,5.088-1.15,6.038-5.237l1.225-5.225c.563-2.412.487-4.1-.263-5.313S15.9,3.3,13.479,2.736l-2.088-.488A11.984,11.984,0,0,0,8.629,1.873Z" transform="translate(7.771 2.189)" fill="#bbb" stroke="#bbb" stroke-width="0.3"/>
        <path id="Vector-2" data-name="Vector" d="M8.868,22.37c-3.212,0-5.263-1.925-6.575-5.987l-1.6-4.937c-1.775-5.5-.188-8.6,5.288-10.375L7.956.433A13.027,13.027,0,0,1,9.531.02a.9.9,0,0,1,.925.35.969.969,0,0,1,.1.987,11.65,11.65,0,0,0-.85,2.55L8.481,9.145c-1.112,4.725.175,6.788,4.9,7.912l2.1.5a12.881,12.881,0,0,0,1.888.313.962.962,0,0,1,.837.7.939.939,0,0,1-.375,1.013,12.364,12.364,0,0,1-3.175,1.462l-1.975.65A12.86,12.86,0,0,1,8.868,22.37ZM8.181,2.333l-1.613.525C2.106,4.3,1.043,6.4,2.481,10.87l1.6,4.938c1.45,4.463,3.55,5.538,8.012,4.1l1.975-.65c.075-.025.137-.05.212-.075l-1.325-.312c-5.763-1.363-7.65-4.413-6.3-10.163L7.881,3.47C7.968,3.07,8.068,2.683,8.181,2.333Z" transform="translate(1.544 5.442)" fill="#bbb" stroke="#bbb" stroke-width="0.3"/>
        <path id="Vector-3" data-name="Vector" d="M7,3.4a1.708,1.708,0,0,1-.238-.025L.7,1.841A.935.935,0,0,1,1.166.028L7.228,1.566A.933.933,0,0,1,7,3.4Z" transform="translate(14.859 9.734)" fill="#bbb" stroke="#bbb" stroke-width="0.3"/>
        <path id="Vector-4" data-name="Vector" d="M4.578,2.791a1.708,1.708,0,0,1-.238-.025L.7,1.841A.935.935,0,1,1,1.166.028L4.8.953a.937.937,0,0,1,.675,1.137A.91.91,0,0,1,4.578,2.791Z" transform="translate(13.622 14.572)" fill="#bbb" stroke="#bbb" stroke-width="0.3"/>
        <path id="Vector-5" data-name="Vector" d="M0,0H30V30H0Z" fill="none" stroke="#bbb" stroke-width="0.3" opacity="0"/>
      </g>
    </g>
  </g>
</svg>
