<svg id="timerEmp" xmlns="http://www.w3.org/2000/svg" width="18" height="18" viewBox="0 0 18 18">
  <g id="vuesax_outline_timer" data-name="vuesax/outline/timer">
    <g id="timer">
      <path id="Vector" d="M7.125,14.25A7.125,7.125,0,1,1,14.25,7.125,7.131,7.131,0,0,1,7.125,14.25Zm0-13.125a6,6,0,1,0,6,6A6.008,6.008,0,0,0,7.125,1.125Z" transform="translate(1.875 2.813)" fill="#292d32"/>
      <path id="Vector-2" data-name="Vector" d="M.563,4.875A.567.567,0,0,1,0,4.313V.563A.567.567,0,0,1,.563,0a.567.567,0,0,1,.563.563v3.75A.567.567,0,0,1,.563,4.875Z" transform="translate(8.438 5.438)" fill="#292d32"/>
      <path id="Vector-3" data-name="Vector" d="M5.063,1.125H.563A.567.567,0,0,1,0,.563.567.567,0,0,1,.563,0h4.5a.567.567,0,0,1,.563.563A.567.567,0,0,1,5.063,1.125Z" transform="translate(6.188 0.938)" fill="#292d32"/>
      <path id="Vector-4" data-name="Vector" d="M0,0H18V18H0Z" fill="none" opacity="0"/>
    </g>
  </g>
</svg>
