<svg xmlns="http://www.w3.org/2000/svg" width="24" height="24" viewBox="0 0 24 24">
  <g id="trash-2-outline" transform="translate(12)">
    <g id="trash-2-outline-2" data-name="trash-2-outline" transform="translate(-12)">
      <g id="trash-2">
        <rect id="Rectangle_16293" data-name="Rectangle 16293" width="24" height="24" fill="#d5313a" opacity="0"/>
        <path id="Path_59950" data-name="Path 59950" d="M21,6H16V4.33A2.42,2.42,0,0,0,13.5,2h-3A2.42,2.42,0,0,0,8,4.33V6H3A1,1,0,0,0,3,8H4V19a3,3,0,0,0,3,3H17a3,3,0,0,0,3-3V8h1a1,1,0,0,0,0-2ZM10,4.33c0-.16.21-.33.5-.33h3c.29,0,.5.17.5.33V6H10ZM18,19a1,1,0,0,1-1,1H7a1,1,0,0,1-1-1V8H18Z" fill="#d5313a"/>
        <path id="Path_59951" data-name="Path 59951" d="M9,17a1,1,0,0,0,1-1V12a1,1,0,0,0-2,0v4A1,1,0,0,0,9,17Z" fill="#d5313a"/>
        <path id="Path_59952" data-name="Path 59952" d="M15,17a1,1,0,0,0,1-1V12a1,1,0,0,0-2,0v4A1,1,0,0,0,15,17Z" fill="#d5313a"/>
      </g>
    </g>
  </g>
</svg>
