<svg xmlns="http://www.w3.org/2000/svg" width="18" height="18" viewBox="0 0 18 18">
  <g id="upload-outline" transform="translate(18 18) rotate(180)">
    <g id="upload-outline-2" data-name="upload-outline">
      <g id="upload">
        <rect id="Rectangle_16260" data-name="Rectangle 16260" width="18" height="18" transform="translate(18 18) rotate(180)" fill="#fff" opacity="0"/>
        <rect id="Rectangle_16261" data-name="Rectangle 16261" width="12" height="1.5" rx="0.75" transform="translate(15 14) rotate(180)" fill="#fff"/>
        <rect id="Rectangle_16262" data-name="Rectangle 16262" width="3" height="1.5" rx="0.75" transform="translate(13.5 14) rotate(-90)" fill="#fff"/>
        <rect id="Rectangle_16263" data-name="Rectangle 16263" width="3" height="1.5" rx="0.75" transform="translate(3 14) rotate(-90)" fill="#fff"/>
        <path id="Path_59920" data-name="Path 59920" d="M.75,0A.75.75,0,0,0,.3,1.35l3,2.25a.75.75,0,0,0,.885,0l3-2.115A.75.75,0,1,0,6.315.262L3.75,2.07,1.2.15A.75.75,0,0,0,.75,0Z" transform="translate(5.25 6.5)" fill="#fff"/>
        <path id="Path_59921" data-name="Path 59921" d="M.75,0A.75.75,0,0,0,0,.75v6a.75.75,0,0,0,1.5,0v-6A.75.75,0,0,0,.75,0Z" transform="translate(8.25 1.25)" fill="#fff"/>
      </g>
    </g>
  </g>
</svg>
