<svg id="vuesax_outline_user-add" data-name="vuesax/outline/user-add" xmlns="http://www.w3.org/2000/svg" width="78.37" height="78.37" viewBox="0 0 78.37 78.37">
  <g id="user-add">
    <path id="Vector" d="M18.776,37.552A18.776,18.776,0,1,1,37.552,18.776,18.8,18.8,0,0,1,18.776,37.552Zm0-32.654A13.878,13.878,0,1,0,32.654,18.776,13.908,13.908,0,0,0,18.776,4.9Z" transform="translate(20.409 4.082)" fill="#cca079"/>
    <path id="Vector-2" data-name="Vector" d="M2.449,27.756A2.467,2.467,0,0,1,0,25.307C0,11.364,13.682,0,30.5,0a35.575,35.575,0,0,1,9.666,1.306,2.44,2.44,0,1,1-1.306,4.7A30.915,30.915,0,0,0,30.5,4.9C16.392,4.9,4.9,14.041,4.9,25.307A2.467,2.467,0,0,1,2.449,27.756Z" transform="translate(8.687 46.532)" fill="#cca079"/>
    <path id="Vector-3" data-name="Vector" d="M15.511,31.021A15.349,15.349,0,0,1,5.159,27.005,13.98,13.98,0,0,1,2.22,23.478,15.483,15.483,0,0,1,4.376,4.7a15.495,15.495,0,0,1,22.662.457,15.476,15.476,0,0,1,3.984,10.351,13.719,13.719,0,0,1-.49,3.657,13.919,13.919,0,0,1-1.8,4.343A15.363,15.363,0,0,1,15.511,31.021Zm0-26.123A10.589,10.589,0,0,0,4.9,15.511a10.347,10.347,0,0,0,1.535,5.453A9.486,9.486,0,0,0,8.425,23.38a10.463,10.463,0,0,0,7.086,2.776,10.633,10.633,0,0,0,9.078-5.127A10.169,10.169,0,0,0,25.8,18.058a9.5,9.5,0,0,0,.327-2.514A10.588,10.588,0,0,0,23.38,8.458,10.315,10.315,0,0,0,15.511,4.9Z" transform="translate(43.267 43.267)" fill="#007066"/>
    <path id="Vector-4" data-name="Vector" d="M12.213,4.9H2.449A2.467,2.467,0,0,1,0,2.449,2.467,2.467,0,0,1,2.449,0h9.764a2.467,2.467,0,0,1,2.449,2.449A2.467,2.467,0,0,1,12.213,4.9Z" transform="translate(51.462 56.263)" fill="#007066"/>
    <path id="Vector-5" data-name="Vector" d="M2.449,14.662A2.467,2.467,0,0,1,0,12.213V2.449A2.467,2.467,0,0,1,2.449,0,2.467,2.467,0,0,1,4.9,2.449v9.764A2.446,2.446,0,0,1,2.449,14.662Z" transform="translate(56.328 51.496)" fill="#007066"/>
    <path id="Vector-6" data-name="Vector" d="M0,0H78.37V78.37H0Z" fill="none" opacity="0"/>
  </g>
</svg>
